<?xml version="1.0" encoding="UTF-8"?>
<svg width="166px" height="32px" viewBox="0 0 166 32" version="1.1" xmlns="http://www.w3.org/2000/svg" xmlns:xlink="http://www.w3.org/1999/xlink">
    <!-- Generator: Sketch 51.2 (57519) - http://www.bohemiancoding.com/sketch -->
    <title>Solution Viewer - Logo - Text</title>
    <desc>Created with Sketch.</desc>
    <defs>
        <path d="M0.39079268,9.43396342 C0.39079268,9.095791 0.491096555,8.85362878 0.691707315,8.70746951 C0.892318074,8.56131025 1.08719417,8.48823171 1.27634146,8.48823171 L2.29945122,8.48823171 C2.81530746,8.48823171 3.20219383,8.75761926 3.46012195,9.29640244 C3.74097702,9.88103951 4.35139774,10.1733537 5.29140244,10.1733537 L8.30054879,10.2335366 C9.30933432,10.2335366 9.81371952,9.90396671 9.81371952,9.24481708 C9.81371952,8.97542549 9.64320293,8.74329366 9.30216464,8.54841464 C8.96112635,8.35353561 8.51549056,8.1916165 7.96524391,8.06265244 C7.41499725,7.93368838 6.80744235,7.80472626 6.14256098,7.6757622 C5.47767961,7.54679814 4.81710694,7.38487902 4.16082317,7.19 C3.5045394,6.99512098 2.90128324,6.76585498 2.35103659,6.50219512 C1.80078993,6.23853527 1.35515414,5.8760084 1.01411585,5.41460366 C0.673077561,4.95319891 0.502560973,4.41012507 0.502560973,3.78536585 C0.502560973,2.63328692 0.912373948,1.74631408 1.73201219,1.12442072 C2.55165044,0.502527371 3.96163634,0.191585358 5.9620122,0.191585358 L8.14579269,0.243170724 C9.32079857,0.243170724 10.3797209,0.545515262 11.3225915,1.15021341 C12.265462,1.75491155 12.7368903,2.51005644 12.7368903,3.41567073 C12.7368903,3.75384315 12.6365864,3.99743828 12.4359756,4.14646341 C12.2353649,4.29548855 12.0433546,4.37 11.859939,4.37 L10.8368293,4.37 C10.320973,4.37 9.93408666,4.09774662 9.67615855,3.5532317 C9.39530348,2.96859463 8.78488276,2.67628048 7.84487806,2.67628048 L5.2570122,2.62469512 C4.24822667,2.62469512 3.74384146,2.95426499 3.74384146,3.61341463 C3.74384146,3.974514 4.06338095,4.26969397 4.70246951,4.49896341 C5.34155808,4.72823285 6.11533083,4.93027351 7.02381098,5.10509146 C7.93229113,5.27990941 8.8450564,5.49054755 9.76213416,5.73701219 C10.6792119,5.98347684 11.4572834,6.38899108 12.096372,6.95356707 C12.7354605,7.51814307 13.055,8.22170311 13.055,9.0642683 C13.055,10.2163472 12.6437541,11.1033201 11.82125,11.7252134 C10.9987459,12.3471068 9.59019291,12.6580488 7.59554879,12.6580488 L4.99048781,12.6064634 C3.81548193,12.6064634 2.75512668,12.3041189 1.80939024,11.6994207 C0.863653806,11.0947226 0.39079268,10.3395777 0.39079268,9.43396342 Z M15.445122,11.5231707 C14.5509712,10.6978008 14.1039025,9.48125804 14.1039025,7.8735061 C14.1039025,6.26575416 14.5509712,5.05064435 15.445122,4.22814024 C16.3392728,3.40563613 17.6245953,2.99439024 19.3011281,2.99439024 C20.9776608,2.99439024 22.2629834,3.40563613 23.1571342,4.22814024 C24.051285,5.05064435 24.4983537,6.26575416 24.4983537,7.8735061 C24.4983537,9.48125804 24.051285,10.6978008 23.1571342,11.5231707 C22.2629834,12.3485407 20.9776608,12.7612195 19.3011281,12.7612195 C17.6245953,12.7612195 16.3392728,12.3485407 15.445122,11.5231707 Z M17.6203049,5.64243902 C17.2649373,6.10670964 17.0872561,6.84895831 17.0872561,7.86920732 C17.0872561,8.88945632 17.2649373,9.63457082 17.6203049,10.1045732 C17.9756725,10.5745755 18.5359413,10.8095732 19.3011281,10.8095732 C20.0663148,10.8095732 20.6280165,10.5745755 20.98625,10.1045732 C21.3444835,9.63457082 21.5235976,8.88945632 21.5235976,7.86920732 C21.5235976,6.84895831 21.3444835,6.10670964 20.98625,5.64243902 C20.6280165,5.17816841 20.0663148,4.94603658 19.3011281,4.94603658 C18.5359413,4.94603658 17.9756725,5.17816841 17.6203049,5.64243902 Z M26.0803049,12.0648171 L26.0803049,0.793414627 C26.0803049,0.638657755 26.1304568,0.511128543 26.2307622,0.410823163 C26.3310676,0.310517783 26.455731,0.260365846 26.6047561,0.260365846 L28.5306098,0.260365846 C28.6853667,0.260365846 28.811463,0.310517783 28.9089025,0.410823163 C29.006342,0.511128543 29.055061,0.638657755 29.055061,0.793414627 L29.055061,12.0648171 C29.055061,12.219574 29.0049091,12.3456703 28.9046037,12.4431098 C28.8042983,12.5405493 28.6796349,12.5892683 28.5306098,12.5892683 L26.6047561,12.5892683 C26.4499993,12.5892683 26.323903,12.5405493 26.2264634,12.4431098 C26.1290239,12.3456703 26.0803049,12.219574 26.0803049,12.0648171 Z M31.1614635,8.62579269 L31.1614635,3.69939024 C31.1614635,3.54463337 31.2116154,3.41710416 31.3119208,3.31679878 C31.4122261,3.2164934 31.5368895,3.16634146 31.6859147,3.16634146 L33.6117683,3.16634146 C33.7665252,3.16634146 33.8926215,3.2164934 33.990061,3.31679878 C34.0875005,3.41710416 34.1362196,3.54463337 34.1362196,3.69939024 L34.1362196,8.62579269 C34.1362196,10.0014093 34.6807263,10.6892073 35.7697561,10.6892073 C36.4862231,10.6892073 37.2571301,10.2765285 38.0825,9.45115854 L38.0825,3.69939024 C38.0825,3.54463337 38.132652,3.41710416 38.2329574,3.31679878 C38.3332627,3.2164934 38.4579261,3.16634146 38.6069513,3.16634146 L40.5242074,3.16634146 C40.6789642,3.16634146 40.8064934,3.2164934 40.9067988,3.31679878 C41.0071042,3.41710416 41.0572561,3.54463337 41.0572561,3.69939024 L41.0572561,12.0648171 C41.0572561,12.219574 41.0071042,12.3456703 40.9067988,12.4431098 C40.8064934,12.5405493 40.6789642,12.5892683 40.5242074,12.5892683 L38.6069513,12.5892683 C38.4521944,12.5892683 38.3260981,12.5391164 38.2286586,12.438811 C38.1312191,12.3385056 38.0825,12.2138422 38.0825,12.0648171 L38.0825,11.5145732 C37.0966415,12.3456749 36.0936027,12.7612195 35.0733537,12.7612195 C33.8639574,12.7612195 32.9096377,12.4216193 32.2103659,11.7424085 C31.5110941,11.0631978 31.1614635,10.0243363 31.1614635,8.62579269 Z M43.1636586,8.89231708 L43.1636586,0.793414627 C43.1636586,0.638657755 43.2138105,0.511128543 43.3141159,0.410823163 C43.4144213,0.310517783 43.5390847,0.260365846 43.6881098,0.260365846 L45.6139635,0.260365846 C45.7687203,0.260365846 45.8948166,0.310517783 45.9922562,0.410823163 C46.0896957,0.511128543 46.1384147,0.638657755 46.1384147,0.793414627 L46.1384147,3.665 L48.5371342,3.665 C48.6918911,3.665 48.8179874,3.71371902 48.9154269,3.81115853 C49.0128664,3.90859804 49.0615854,4.03469434 49.0615854,4.18945122 L49.0615854,5.21256097 C49.0615854,5.36731785 49.0114335,5.49341415 48.9111281,5.59085366 C48.8108227,5.68829317 48.6861593,5.73701219 48.5371342,5.73701219 L46.1384147,5.73701219 L46.1384147,8.89231708 C46.1384147,9.47695415 46.2759743,9.92832158 46.5510976,10.2464329 C46.8262209,10.5645443 47.1930465,10.7235976 47.6515854,10.7235976 C47.8063423,10.7235976 48.0126817,10.7064026 48.2706098,10.6720122 C48.5285379,10.6376218 48.7148166,10.6204268 48.8294513,10.6204268 L49.147561,10.6204268 C49.3023179,10.6204268 49.4298471,10.6691459 49.5301525,10.7665854 C49.6304579,10.8640249 49.6806098,10.9901212 49.6806098,11.1448781 L49.6806098,12.0648171 C49.6806098,12.196647 49.6304579,12.31128 49.5301525,12.4087195 C49.4298471,12.506159 49.3023179,12.5663414 49.147561,12.5892683 C48.562924,12.703903 47.8006145,12.7612195 46.8606098,12.7612195 C44.3959633,12.7669513 43.1636586,11.47733 43.1636586,8.89231708 Z M51.0820123,1.36945121 L51.0820123,1.07713414 C51.0820123,0.773352132 51.1694199,0.532622832 51.3442379,0.354939016 C51.5190558,0.177255201 51.761218,0.0884146259 52.0707318,0.0884146259 L53.1368293,0.0884146259 C53.4406113,0.0884146259 53.6813406,0.175822288 53.8590245,0.350640236 C54.0367083,0.525458183 54.1255488,0.767620396 54.1255488,1.07713414 L54.1255488,1.36945121 C54.1255488,1.67323322 54.0381412,1.91396252 53.8633232,2.09164634 C53.6885053,2.26933015 53.4463431,2.35817073 53.1368293,2.35817073 L52.0707318,2.35817073 C51.7669498,2.35817073 51.5262205,2.26933015 51.3485366,2.09164634 C51.1708528,1.91396252 51.0820123,1.67323322 51.0820123,1.36945121 Z M51.1164025,12.0648171 L51.1164025,3.9057317 C51.1164025,3.75097483 51.1665544,3.62487853 51.2668598,3.52743902 C51.3671652,3.42999951 51.4918286,3.38128048 51.6408537,3.38128048 L53.5667074,3.38128048 C53.7214643,3.38128048 53.8475606,3.43143242 53.9450001,3.5317378 C54.0424396,3.63204318 54.0911586,3.75670657 54.0911586,3.9057317 L54.0911586,12.0648171 C54.0911586,12.219574 54.0410067,12.3456703 53.9407013,12.4431098 C53.8403959,12.5405493 53.7157325,12.5892683 53.5667074,12.5892683 L51.6408537,12.5892683 C51.4860968,12.5892683 51.3600005,12.5405493 51.262561,12.4431098 C51.1651215,12.3456703 51.1164025,12.219574 51.1164025,12.0648171 Z M57.0487196,11.5231707 C56.1545688,10.6978008 55.7075001,9.48125804 55.7075001,7.8735061 C55.7075001,6.26575416 56.1545688,5.05064435 57.0487196,4.22814024 C57.9428704,3.40563613 59.2281929,2.99439024 60.9047257,2.99439024 C62.5812585,2.99439024 63.866581,3.40563613 64.7607318,4.22814024 C65.6548826,5.05064435 66.1019513,6.26575416 66.1019513,7.8735061 C66.1019513,9.48125804 65.6548826,10.6978008 64.7607318,11.5231707 C63.866581,12.3485407 62.5812585,12.7612195 60.9047257,12.7612195 C59.2281929,12.7612195 57.9428704,12.3485407 57.0487196,11.5231707 Z M59.2239025,5.64243902 C58.8685349,6.10670964 58.6908537,6.84895831 58.6908537,7.86920732 C58.6908537,8.88945632 58.8685349,9.63457082 59.2239025,10.1045732 C59.5792701,10.5745755 60.1395389,10.8095732 60.9047257,10.8095732 C61.6699124,10.8095732 62.2316141,10.5745755 62.5898476,10.1045732 C62.9480811,9.63457082 63.1271952,8.88945632 63.1271952,7.86920732 C63.1271952,6.84895831 62.9480811,6.10670964 62.5898476,5.64243902 C62.2316141,5.17816841 61.6699124,4.94603658 60.9047257,4.94603658 C60.1395389,4.94603658 59.5792701,5.17816841 59.2239025,5.64243902 Z M67.6839025,12.0648171 L67.6839025,3.69939024 C67.6839025,3.54463337 67.7340545,3.41710416 67.8343598,3.31679878 C67.9346652,3.2164934 68.0593286,3.16634146 68.2083537,3.16634146 L70.1342074,3.16634146 C70.2889643,3.16634146 70.4150606,3.2164934 70.5125001,3.31679878 C70.6099396,3.41710416 70.6586586,3.54463337 70.6586586,3.69939024 L70.6586586,4.24103658 C71.6445172,3.40993486 72.647556,2.99439024 73.667805,2.99439024 C74.8772013,2.99439024 75.831521,3.3339905 76.5307928,4.01320122 C77.2300646,4.69241193 77.5796952,5.73127349 77.5796952,7.12981707 L77.5796952,12.0648171 C77.5796952,12.219574 77.5295433,12.3456703 77.4292379,12.4431098 C77.3289325,12.5405493 77.2014033,12.5892683 77.0466464,12.5892683 L75.1293903,12.5892683 C74.9746335,12.5892683 74.8485372,12.5391164 74.7510977,12.438811 C74.6536581,12.3385056 74.6049391,12.2138422 74.6049391,12.0648171 L74.6049391,7.12981707 C74.6049391,5.75420044 74.0575665,5.06926826 72.962805,5.075 C72.246338,5.075 71.4782969,5.48481297 70.6586586,6.30445122 L70.6586586,12.0648171 C70.6586586,12.219574 70.6085067,12.3456703 70.5082013,12.4431098 C70.4078959,12.5405493 70.2832325,12.5892683 70.1342074,12.5892683 L68.2083537,12.5892683 C68.0535969,12.5892683 67.9275006,12.5405493 67.8300611,12.4431098 C67.7326215,12.3456703 67.6839025,12.219574 67.6839025,12.0648171 Z M85.0165855,0.982560968 C84.9821951,0.913780137 84.9650001,0.847866162 84.9650001,0.784817066 C84.9650001,0.681645818 85.0051217,0.584207768 85.085366,0.492499992 C85.2171959,0.337743121 85.3805479,0.260365846 85.5754269,0.260365846 L87.4582928,0.260365846 C87.9053682,0.260365846 88.2464014,0.532619221 88.4814025,1.07713414 L91.8086586,8.48823171 L95.1359147,1.07713414 C95.3709159,0.538350957 95.7119491,0.266097582 96.1590245,0.260365846 L98.0418904,0.260365846 C98.2425011,0.260365846 98.4058531,0.337743121 98.5319513,0.492499992 C98.6121956,0.584207768 98.6523172,0.681645818 98.6523172,0.784817066 C98.6523172,0.847866162 98.6379881,0.913780137 98.6093294,0.982560968 L93.6571343,11.7123171 C93.3877427,12.2969541 92.9779297,12.5892683 92.427683,12.5892683 L91.1896343,12.5892683 C90.6393876,12.5892683 90.2295746,12.2969541 89.960183,11.7123171 L85.0165855,0.982560968 Z M99.890366,1.36945121 L99.890366,1.07713414 C99.890366,0.773352132 99.9777736,0.532622832 100.152592,0.354939016 C100.32741,0.177255201 100.569572,0.0884146259 100.879085,0.0884146259 L101.945183,0.0884146259 C102.248965,0.0884146259 102.489694,0.175822288 102.667378,0.350640236 C102.845062,0.525458183 102.933903,0.767620396 102.933903,1.07713414 L102.933903,1.36945121 C102.933903,1.67323322 102.846495,1.91396252 102.671677,2.09164634 C102.496859,2.26933015 102.254697,2.35817073 101.945183,2.35817073 L100.879085,2.35817073 C100.575303,2.35817073 100.334574,2.26933015 100.15689,2.09164634 C99.9792066,1.91396252 99.890366,1.67323322 99.890366,1.36945121 Z M99.9247562,12.0648171 L99.9247562,3.9057317 C99.9247562,3.75097483 99.9749082,3.62487853 100.075214,3.52743902 C100.175519,3.42999951 100.300182,3.38128048 100.449207,3.38128048 L102.375061,3.38128048 C102.529818,3.38128048 102.655914,3.43143242 102.753354,3.5317378 C102.850793,3.63204318 102.899512,3.75670657 102.899512,3.9057317 L102.899512,12.0648171 C102.899512,12.219574 102.84936,12.3456703 102.749055,12.4431098 C102.64875,12.5405493 102.524086,12.5892683 102.375061,12.5892683 L100.449207,12.5892683 C100.294451,12.5892683 100.168354,12.5405493 100.070915,12.4431098 C99.9734752,12.3456703 99.9247562,12.219574 99.9247562,12.0648171 Z M105.839878,11.5059756 C104.957191,10.6691422 104.515854,9.46406275 104.515854,7.89070122 C104.515854,6.31733969 104.960057,5.10796154 105.848476,4.26253048 C106.736895,3.41709943 107.966334,2.99439024 109.536829,2.99439024 C111.118789,2.99439024 112.351093,3.40563613 113.233781,4.22814024 C114.116468,5.05064435 114.557805,6.22993134 114.557805,7.76603659 L114.557805,8.25609756 C114.557805,8.41085443 114.507653,8.53838365 114.407348,8.63868903 C114.307042,8.73899441 114.179513,8.78914634 114.024756,8.78914634 L107.550793,8.78914634 C107.60811,9.49414987 107.810151,10.0071325 108.156921,10.3281098 C108.503691,10.649087 109.035301,10.8095732 109.751768,10.8095732 C110.559943,10.8095732 111.121645,10.6175629 111.43689,10.2335366 C111.683355,9.92975458 112.012925,9.77500003 112.42561,9.7692683 L113.706646,9.7692683 C113.861403,9.7692683 113.988933,9.81942023 114.089238,9.91972561 C114.189543,10.020031 114.239695,10.1475602 114.239695,10.3023171 C114.239695,11.9473253 112.672089,12.7669513 109.536829,12.7612195 C107.95487,12.7612195 106.722566,12.3428091 105.839878,11.5059756 Z M107.533598,6.97506098 L111.531464,6.97506098 C111.474146,5.62237128 110.810708,4.94603658 109.541128,4.94603658 C108.271549,4.94603658 107.602379,5.62237128 107.533598,6.97506098 Z M115.159634,3.92292683 C115.11378,3.77390169 115.087988,3.65067122 115.082256,3.5532317 C115.082256,3.30103532 115.225547,3.17207319 115.512134,3.16634146 L117.111281,3.16634146 C117.380672,3.16634146 117.621402,3.23368835 117.833476,3.36838414 C118.04555,3.50307994 118.191707,3.68792565 118.271951,3.92292683 L119.681951,8.5570122 L121.074756,3.92292683 C121.229513,3.41853406 121.556217,3.16634146 122.054878,3.16634146 L123.576646,3.16634146 C124.081039,3.16634146 124.407743,3.41853406 124.556768,3.92292683 L125.949573,8.5570122 L127.359573,3.92292683 C127.439818,3.68792565 127.585975,3.50307994 127.798049,3.36838414 C128.010123,3.23368835 128.250852,3.16634146 128.520244,3.16634146 L130.11939,3.16634146 C130.400245,3.16634146 130.543537,3.29530358 130.549268,3.5532317 C130.549268,3.65640295 130.523476,3.77963343 130.47189,3.92292683 L127.866829,11.8326829 C127.786585,12.0676841 127.643294,12.2525298 127.436951,12.3872256 C127.230609,12.5219214 127.00994,12.5892683 126.774939,12.5892683 L125.562683,12.5892683 C125.327682,12.5892683 125.104148,12.5190556 124.892073,12.3786281 C124.679999,12.2382005 124.539574,12.0562206 124.470793,11.8326829 L122.820061,6.70853659 L121.160732,11.8326829 C121.091951,12.0562206 120.951526,12.2382005 120.739451,12.3786281 C120.527377,12.5190556 120.303843,12.5892683 120.068842,12.5892683 L118.856586,12.5892683 C118.621584,12.5892683 118.400916,12.5219214 118.194573,12.3872256 C117.988231,12.2525298 117.84494,12.0676841 117.764695,11.8326829 L115.159634,3.92292683 Z M132.397744,11.5059756 C131.515057,10.6691422 131.07372,9.46406275 131.07372,7.89070122 C131.07372,6.31733969 131.517923,5.10796154 132.406342,4.26253048 C133.294761,3.41709943 134.5242,2.99439024 136.094695,2.99439024 C137.676654,2.99439024 138.908959,3.40563613 139.791647,4.22814024 C140.674334,5.05064435 141.115671,6.22993134 141.115671,7.76603659 L141.115671,8.25609756 C141.115671,8.41085443 141.065519,8.53838365 140.965214,8.63868903 C140.864908,8.73899441 140.737379,8.78914634 140.582622,8.78914634 L134.108659,8.78914634 C134.165976,9.49414987 134.368017,10.0071325 134.714787,10.3281098 C135.061557,10.649087 135.593167,10.8095732 136.309634,10.8095732 C137.117809,10.8095732 137.679511,10.6175629 137.994756,10.2335366 C138.241221,9.92975458 138.570791,9.77500003 138.983476,9.7692683 L140.264512,9.7692683 C140.419269,9.7692683 140.546798,9.81942023 140.647104,9.91972561 C140.747409,10.020031 140.797561,10.1475602 140.797561,10.3023171 C140.797561,11.9473253 139.229955,12.7669513 136.094695,12.7612195 C134.512736,12.7612195 133.280431,12.3428091 132.397744,11.5059756 Z M134.091464,6.97506098 L138.089329,6.97506098 C138.032012,5.62237128 137.368574,4.94603658 136.098994,4.94603658 C134.829415,4.94603658 134.160244,5.62237128 134.091464,6.97506098 Z M142.697622,12.0648171 L142.697622,3.69939024 C142.697622,3.54463337 142.747774,3.41710416 142.848079,3.31679878 C142.948385,3.2164934 143.073048,3.16634146 143.222073,3.16634146 L145.147927,3.16634146 C145.302684,3.16634146 145.42878,3.2164934 145.52622,3.31679878 C145.623659,3.41710416 145.672378,3.54463337 145.672378,3.69939024 L145.672378,4.24103658 C146.257015,3.81688812 146.82015,3.50308028 147.361799,3.29960365 C147.903448,3.09612703 148.61274,2.99439024 149.489695,2.99439024 C149.644452,2.99439024 149.771981,3.04454218 149.872287,3.14484756 C149.972592,3.24515294 150.022744,3.36981632 150.022744,3.51884146 L150.022744,4.82567073 C150.022744,4.9804276 149.972592,5.1065239 149.872287,5.20396341 C149.771981,5.30140292 149.644452,5.35012195 149.489695,5.35012195 L149.214573,5.35012195 C149.082743,5.35012195 148.867807,5.34152447 148.569756,5.32432927 C148.271706,5.30713406 148.045306,5.29853658 147.890549,5.29853658 C147.116765,5.29853658 146.377382,5.72267868 145.672378,6.57097561 L145.672378,12.0648171 C145.672378,12.219574 145.622226,12.3456703 145.521921,12.4431098 C145.421616,12.5405493 145.296952,12.5892683 145.147927,12.5892683 L143.222073,12.5892683 C143.067316,12.5892683 142.94122,12.5405493 142.843781,12.4431098 C142.746341,12.3456703 142.697622,12.219574 142.697622,12.0648171 Z" id="path-1"></path>
    </defs>
    <g id="Page-1" stroke="none" stroke-width="1" fill="none" fill-rule="evenodd">
        <g id="Solution-Viewer---Logo---Text">
            <g id="Group-18-Copy" fill="#FFFFFF" fill-rule="nonzero">
                <path d="M0,8.42926829e-05 L165.999906,8.42926829e-05 L165.999906,12.6998314 L162.684434,12.6998314 L162.684434,3.38607848 L3.31547254,3.38607848 L3.31547254,28.613899 L162.684434,28.613899 L162.684434,25.5674309 L165.999906,25.5674309 L165.999906,32.0000843 L0,32.0000843 L0,8.42926829e-05 Z M162.684434,22.348821 L162.684434,15.9162632 L166,15.9162632 L166,22.348821 L162.684434,22.348821 Z" id="Combined-Shape"></path>
            </g>
            <g id="Solution-Viewer" transform="translate(8.000000, 9.000000)">
                <g>
                    <use fill="#000000" xlink:href="#path-1"></use>
                    <use fill="#FFFFFF" xlink:href="#path-1"></use>
                </g>
            </g>
        </g>
    </g>
</svg>