<?xml version="1.0" encoding="UTF-8"?>
<svg width="168px" height="32px" viewBox="0 0 168 32" version="1.1" xmlns="http://www.w3.org/2000/svg" xmlns:xlink="http://www.w3.org/1999/xlink">
    <!-- Generator: Sketch 51.3 (57544) - http://www.bohemiancoding.com/sketch -->
    <title>Group</title>
    <desc>Created with Sketch.</desc>
    <defs></defs>
    <g id="Page-1" stroke="none" stroke-width="1" fill="none" fill-rule="evenodd">
        <g id="Group" fill="#FFFFFF">
            <path d="M0,0 L167.999906,0 L167.999906,12.6997471 L164.684434,12.6997471 L164.684434,3.38599419 L3.31547254,3.38599419 L3.31547254,28.6138147 L164.684434,28.6138147 L164.684434,25.5673466 L167.999906,25.5673466 L167.999906,32 L0,32 L0,0 Z M164.684434,22.3487367 L164.684434,15.9161789 L168,15.9161789 L168,22.3487367 L164.684434,22.3487367 Z" id="Combined-Shape"></path>
            <path d="M9,19.3470534 C9,19.0088266 9.10032002,18.7666254 9.30096308,18.6204426 C9.50160614,18.4742598 9.69651361,18.4011695 9.88569136,18.4011695 L10.9089658,18.4011695 C11.4249051,18.4011695 11.8118538,18.6706004 12.0698234,19.2094703 C12.3507237,19.7942015 12.9612427,20.0865627 13.9013988,20.0865627 L16.9110296,20.1467553 C17.9199775,20.1467553 18.4244439,19.8171324 18.4244439,19.1578766 C18.4244439,18.8884417 18.2538999,18.6562725 17.9128067,18.4613621 C17.5717135,18.2664517 17.126006,18.1045065 16.5756707,17.9755217 C16.0253355,17.8465368 15.4176828,17.717554 14.7526943,17.5885691 C14.0877059,17.4595843 13.4270269,17.2976391 12.7706375,17.1027287 C12.114248,16.9078183 11.5108947,16.6785154 10.9605595,16.4148131 C10.4102243,16.1511108 9.96451672,15.7885256 9.62342353,15.3270465 C9.28233033,14.8655675 9.11178629,14.3224062 9.11178629,13.6975464 C9.11178629,12.545282 9.52166524,11.6581664 10.3414355,11.0361729 C11.1612057,10.4141794 12.5714186,10.1031873 14.5721165,10.1031873 L16.7562486,10.154781 C17.9314436,10.154781 18.9905364,10.4571742 19.9335588,11.0619697 C20.8765812,11.6667652 21.3480853,12.4220317 21.3480853,13.3277918 C21.3480853,13.6660187 21.2477653,13.909653 21.0471222,14.0587021 C20.8464792,14.2077513 20.654438,14.2822747 20.4709929,14.2822747 L19.4477184,14.2822747 C18.9317791,14.2822747 18.5448305,14.0099775 18.2868608,13.4653749 C18.0059605,12.8806437 17.3954415,12.5882825 16.4552855,12.5882825 L13.867003,12.5366888 C12.858055,12.5366888 12.3535886,12.8663118 12.3535886,13.5255675 C12.3535886,13.886725 12.6731796,14.1819525 13.312371,14.4112589 C13.9515625,14.6405652 14.7254598,14.8426384 15.6340862,15.0174845 C16.5427126,15.1923306 17.4556249,15.4030027 18.3728503,15.649507 C19.2900757,15.8960113 20.0682724,16.3015908 20.7074639,16.8662577 C21.3466553,17.4309246 21.6662463,18.1345979 21.6662463,18.9772988 C21.6662463,20.1295632 21.2549342,21.0166788 20.4322976,21.6386723 C19.6096611,22.2606658 18.2008813,22.5716579 16.2059161,22.5716579 L13.6004357,22.5200642 C12.4252406,22.5200642 11.3647147,22.217671 10.418826,21.6128755 C9.47293726,21.00808 9,20.2528135 9,19.3470534 Z M24.056753,21.4365971 C23.1624583,20.6110942 22.7153176,19.3943557 22.7153176,17.7863449 C22.7153176,16.1783341 23.1624583,14.9630286 24.056753,14.1403921 C24.9510478,13.3177556 26.2365773,12.9064435 27.91338,12.9064435 C29.5901827,12.9064435 30.8757121,13.3177556 31.7700069,14.1403921 C32.6643017,14.9630286 33.1114423,16.1783341 33.1114423,17.7863449 C33.1114423,19.3943557 32.6643017,20.6110942 31.7700069,21.4365971 C30.8757121,22.2621 29.5901827,22.6748452 27.91338,22.6748452 C26.2365773,22.6748452 24.9510478,22.2621 24.056753,21.4365971 Z M26.2322862,15.5549186 C25.8768613,16.019264 25.6991516,16.7616321 25.6991516,17.7820454 C25.6991516,18.8024587 25.8768613,19.5476931 26.2322862,20.0177712 C26.587711,20.4878492 27.14807,20.7228847 27.91338,20.7228847 C28.6786899,20.7228847 29.240482,20.4878492 29.5987732,20.0177712 C29.9570644,19.5476931 30.1362073,18.8024587 30.1362073,17.7820454 C30.1362073,16.7616321 29.9570644,16.019264 29.5987732,15.5549186 C29.240482,15.0905732 28.6786899,14.858404 27.91338,14.858404 C27.14807,14.858404 26.587711,15.0905732 26.2322862,15.5549186 Z M34.6936482,21.9783307 L34.6936482,10.7051135 C34.6936482,10.5503317 34.7438083,10.422782 34.8441298,10.3224604 C34.9444513,10.2221389 35.0691348,10.1719789 35.2181839,10.1719789 L37.1443476,10.1719789 C37.2991294,10.1719789 37.425246,10.2221389 37.5227012,10.3224604 C37.6201564,10.422782 37.6688833,10.5503317 37.6688833,10.7051135 L37.6688833,21.9783307 C37.6688833,22.1331124 37.6187233,22.259229 37.5184017,22.3566842 C37.4180802,22.4541394 37.2933968,22.5028663 37.1443476,22.5028663 L35.2181839,22.5028663 C35.0634021,22.5028663 34.9372855,22.4541394 34.8398303,22.3566842 C34.7423751,22.259229 34.6936482,22.1331124 34.6936482,21.9783307 Z M39.7756249,18.5387526 L39.7756249,13.611557 C39.7756249,13.4567752 39.8257849,13.3292255 39.9261064,13.2289039 C40.0264279,13.1285824 40.1511114,13.0784224 40.3001605,13.0784224 L42.2263242,13.0784224 C42.381106,13.0784224 42.5072226,13.1285824 42.6046778,13.2289039 C42.702133,13.3292255 42.7508599,13.4567752 42.7508599,13.611557 L42.7508599,18.5387526 C42.7508599,19.9145907 43.2954543,20.6024994 44.3846595,20.6024994 C45.1012418,20.6024994 45.8722729,20.1897542 46.6977757,19.3642513 L46.6977757,13.611557 C46.6977757,13.4567752 46.7479358,13.3292255 46.8482573,13.2289039 C46.9485788,13.1285824 47.0732623,13.0784224 47.2223114,13.0784224 L49.1398762,13.0784224 C49.294658,13.0784224 49.4222077,13.1285824 49.5225292,13.2289039 C49.6228508,13.3292255 49.6730108,13.4567752 49.6730108,13.611557 L49.6730108,21.9783307 C49.6730108,22.1331124 49.6228508,22.259229 49.5225292,22.3566842 C49.4222077,22.4541394 49.294658,22.5028663 49.1398762,22.5028663 L47.2223114,22.5028663 C47.0675296,22.5028663 46.941413,22.4527063 46.8439578,22.3523848 C46.7465026,22.2520632 46.6977757,22.1273798 46.6977757,21.9783307 L46.6977757,21.4279982 C45.7117584,22.2592337 44.7085582,22.6748452 43.6881449,22.6748452 C42.4785539,22.6748452 41.5240805,22.3351903 40.8246962,21.6558702 C40.1253118,20.9765501 39.7756249,19.9375213 39.7756249,18.5387526 Z M51.7797524,18.8053199 L51.7797524,10.7051135 C51.7797524,10.5503317 51.8299124,10.422782 51.9302339,10.3224604 C52.0305554,10.2221389 52.1552389,10.1719789 52.304288,10.1719789 L54.2304517,10.1719789 C54.3852335,10.1719789 54.5113501,10.2221389 54.6088053,10.3224604 C54.7062605,10.422782 54.7549874,10.5503317 54.7549874,10.7051135 L54.7549874,13.5771612 L57.1540931,13.5771612 C57.3088749,13.5771612 57.4349915,13.6258881 57.5324467,13.7233433 C57.6299019,13.8207985 57.6786288,13.9469151 57.6786288,14.1016969 L57.6786288,15.1249713 C57.6786288,15.2797531 57.6284687,15.4058697 57.5281472,15.5033249 C57.4278257,15.6007801 57.3031422,15.649507 57.1540931,15.649507 L54.7549874,15.649507 L54.7549874,18.8053199 C54.7549874,19.3900511 54.8925691,19.8414912 55.1677368,20.1596537 C55.4429044,20.4778163 55.809789,20.6368952 56.2684017,20.6368952 C56.4231835,20.6368952 56.6295562,20.6196975 56.8875258,20.5853015 C57.1454954,20.5509056 57.3318041,20.5337079 57.4464572,20.5337079 L57.7646182,20.5337079 C57.9194,20.5337079 58.0469497,20.5824347 58.1472713,20.6798899 C58.2475928,20.7773451 58.2977528,20.9034617 58.2977528,21.0582435 L58.2977528,21.9783307 C58.2977528,22.1101818 58.2475928,22.2248333 58.1472713,22.3222885 C58.0469497,22.4197437 57.9194,22.4799357 57.7646182,22.5028663 C57.179887,22.6175195 56.4174548,22.6748452 55.4772988,22.6748452 C53.0122555,22.6805779 51.7797524,21.390749 51.7797524,18.8053199 Z M59.6993809,11.2812428 L59.6993809,10.9888787 C59.6993809,10.6850478 59.7868026,10.4442797 59.9616487,10.2665673 C60.1364948,10.0888549 60.378696,10 60.6882596,10 L61.7545288,10 C62.0583597,10 62.2991278,10.0874217 62.4768402,10.2622678 C62.6545526,10.4371139 62.7434075,10.6793151 62.7434075,10.9888787 L62.7434075,11.2812428 C62.7434075,11.5850738 62.6559857,11.8258418 62.4811396,12.0035542 C62.3062936,12.1812667 62.0640924,12.2701215 61.7545288,12.2701215 L60.6882596,12.2701215 C60.3844287,12.2701215 60.1436606,12.1812667 59.9659482,12.0035542 C59.7882358,11.8258418 59.6993809,11.5850738 59.6993809,11.2812428 Z M59.7337767,21.9783307 L59.7337767,13.8179317 C59.7337767,13.6631499 59.7839367,13.5370333 59.8842582,13.4395781 C59.9845797,13.3421229 60.1092632,13.293396 60.2583123,13.293396 L62.184476,13.293396 C62.3392578,13.293396 62.4653744,13.343556 62.5628296,13.4438776 C62.6602848,13.5441991 62.7090117,13.6688825 62.7090117,13.8179317 L62.7090117,21.9783307 C62.7090117,22.1331124 62.6588517,22.259229 62.5585302,22.3566842 C62.4582086,22.4541394 62.3335252,22.5028663 62.184476,22.5028663 L60.2583123,22.5028663 C60.1035305,22.5028663 59.9774139,22.4541394 59.8799587,22.3566842 C59.7825035,22.259229 59.7337767,22.1331124 59.7337767,21.9783307 Z M65.6670488,21.4365971 C64.7727541,20.6110942 64.3256134,19.3943557 64.3256134,17.7863449 C64.3256134,16.1783341 64.7727541,14.9630286 65.6670488,14.1403921 C66.5613436,13.3177556 67.8468731,12.9064435 69.5236758,12.9064435 C71.2004785,12.9064435 72.4860079,13.3177556 73.3803027,14.1403921 C74.2745975,14.9630286 74.7217381,16.1783341 74.7217381,17.7863449 C74.7217381,19.3943557 74.2745975,20.6110942 73.3803027,21.4365971 C72.4860079,22.2621 71.2004785,22.6748452 69.5236758,22.6748452 C67.8468731,22.6748452 66.5613436,22.2621 65.6670488,21.4365971 Z M67.842582,15.5549186 C67.4871571,16.019264 67.3094474,16.7616321 67.3094474,17.7820454 C67.3094474,18.8024587 67.4871571,19.5476931 67.842582,20.0177712 C68.1980068,20.4878492 68.7583658,20.7228847 69.5236758,20.7228847 C70.2889857,20.7228847 70.8507778,20.4878492 71.209069,20.0177712 C71.5673602,19.5476931 71.7465031,18.8024587 71.7465031,17.7820454 C71.7465031,16.7616321 71.5673602,16.019264 71.209069,15.5549186 C70.8507778,15.0905732 70.2889857,14.858404 69.5236758,14.858404 C68.7583658,14.858404 68.1980068,15.0905732 67.842582,15.5549186 Z M76.303944,21.9783307 L76.303944,13.611557 C76.303944,13.4567752 76.3541041,13.3292255 76.4544256,13.2289039 C76.5547471,13.1285824 76.6794306,13.0784224 76.8284797,13.0784224 L78.7546434,13.0784224 C78.9094252,13.0784224 79.0355418,13.1285824 79.132997,13.2289039 C79.2304522,13.3292255 79.2791791,13.4567752 79.2791791,13.611557 L79.2791791,14.1532905 C80.2651964,13.322055 81.2683966,12.9064435 82.2888099,12.9064435 C83.4984009,12.9064435 84.4528743,13.2460984 85.1522587,13.9254185 C85.851643,14.6047385 86.20133,15.6437674 86.20133,17.0425361 L86.20133,21.9783307 C86.20133,22.1331124 86.15117,22.259229 86.0508484,22.3566842 C85.9505269,22.4541394 85.8229772,22.5028663 85.6681954,22.5028663 L83.7506306,22.5028663 C83.5958488,22.5028663 83.4697322,22.4527063 83.372277,22.3523848 C83.2748218,22.2520632 83.2260949,22.1273798 83.2260949,21.9783307 L83.2260949,17.0425361 C83.2260949,15.666698 82.6786342,14.9816556 81.5836964,14.9873882 C80.8671141,14.9873882 80.0989493,15.3972672 79.2791791,16.2170374 L79.2791791,21.9783307 C79.2791791,22.1331124 79.2290191,22.259229 79.1286975,22.3566842 C79.028376,22.4541394 78.9036926,22.5028663 78.7546434,22.5028663 L76.8284797,22.5028663 C76.6736979,22.5028663 76.5475813,22.4541394 76.4501261,22.3566842 C76.3526709,22.259229 76.303944,22.1331124 76.303944,21.9783307 Z M93.6394176,10.8942903 C93.6050216,10.8254984 93.5878239,10.7595738 93.5878239,10.6965146 C93.5878239,10.5933267 93.6279519,10.495873 93.7082091,10.4041504 C93.8400603,10.2493686 94.0034386,10.1719789 94.198349,10.1719789 L96.081518,10.1719789 C96.5286654,10.1719789 96.8697535,10.4442761 97.1047925,10.9888787 L100.432584,18.4011695 L103.760376,10.9888787 C103.995415,10.4500088 104.336503,10.1777116 104.783651,10.1719789 L106.66682,10.1719789 C106.867463,10.1719789 107.030841,10.2493686 107.156959,10.4041504 C107.237217,10.495873 107.277345,10.5933267 107.277345,10.6965146 C107.277345,10.7595738 107.263013,10.8254984 107.23435,10.8942903 L102.281357,21.6257739 C102.011923,22.2105051 101.602044,22.5028663 101.051708,22.5028663 L99.8134602,22.5028663 C99.263125,22.5028663 98.853246,22.2105051 98.5838111,21.6257739 L93.6394176,10.8942903 Z M108.515593,11.2812428 L108.515593,10.9888787 C108.515593,10.6850478 108.603014,10.4442797 108.777861,10.2665673 C108.952707,10.0888549 109.194908,10 109.504471,10 L110.570741,10 C110.874572,10 111.11534,10.0874217 111.293052,10.2622678 C111.470764,10.4371139 111.559619,10.6793151 111.559619,10.9888787 L111.559619,11.2812428 C111.559619,11.5850738 111.472198,11.8258418 111.297352,12.0035542 C111.122505,12.1812667 110.880304,12.2701215 110.570741,12.2701215 L109.504471,12.2701215 C109.200641,12.2701215 108.959872,12.1812667 108.78216,12.0035542 C108.604448,11.8258418 108.515593,11.5850738 108.515593,11.2812428 Z M108.549989,21.9783307 L108.549989,13.8179317 C108.549989,13.6631499 108.600149,13.5370333 108.70047,13.4395781 C108.800792,13.3421229 108.925475,13.293396 109.074524,13.293396 L111.000688,13.293396 C111.15547,13.293396 111.281586,13.343556 111.379042,13.4438776 C111.476497,13.5441991 111.525224,13.6688825 111.525224,13.8179317 L111.525224,21.9783307 C111.525224,22.1331124 111.475064,22.259229 111.374742,22.3566842 C111.274421,22.4541394 111.149737,22.5028663 111.000688,22.5028663 L109.074524,22.5028663 C108.919742,22.5028663 108.793626,22.4541394 108.696171,22.3566842 C108.598715,22.259229 108.549989,22.1331124 108.549989,21.9783307 Z M114.466063,21.4193992 C113.583233,20.582431 113.141825,19.3771576 113.141825,17.8035428 C113.141825,16.2299279 113.5861,15.0203551 114.474662,14.1747879 C115.363224,13.3292207 116.592861,12.9064435 118.163609,12.9064435 C119.745823,12.9064435 120.978326,13.3177556 121.861156,14.1403921 C122.743985,14.9630286 123.185393,16.1425055 123.185393,17.6788581 L123.185393,18.1689979 C123.185393,18.3237797 123.135233,18.4513295 123.034912,18.551651 C122.93459,18.6519725 122.80704,18.7021325 122.652259,18.7021325 L116.177253,18.7021325 C116.23458,19.4072496 116.436653,19.9203148 116.783479,20.2413437 C117.130304,20.5623726 117.662001,20.7228847 118.378583,20.7228847 C119.186888,20.7228847 119.74868,20.5308435 120.063976,20.1467553 C120.31048,19.8429244 120.640103,19.6881449 121.052855,19.6824123 L122.334098,19.6824123 C122.488879,19.6824123 122.616429,19.7325723 122.716751,19.8328938 C122.817072,19.9332154 122.867232,20.0607651 122.867232,20.2155469 C122.867232,21.86082 121.299374,22.6805779 118.163609,22.6748452 C116.581395,22.6748452 115.348892,22.2563674 114.466063,21.4193992 Z M116.160055,16.8877551 L120.158565,16.8877551 C120.101238,15.5348476 119.437693,14.858404 118.167909,14.858404 C116.898125,14.858404 116.228847,15.5348476 116.160055,16.8877551 Z M123.959298,13.8351296 C123.913437,13.6860804 123.88764,13.5628301 123.881908,13.4653749 C123.881908,13.2131379 124.025222,13.084155 124.311855,13.0784224 L125.911259,13.0784224 C126.180694,13.0784224 126.421462,13.1457801 126.63357,13.2804976 C126.845679,13.4152151 126.991859,13.6000905 127.072116,13.8351296 L128.482343,18.469961 L129.875373,13.8351296 C130.030154,13.3306556 130.356911,13.0784224 130.855652,13.0784224 L132.377666,13.0784224 C132.88214,13.0784224 133.208896,13.3306556 133.357945,13.8351296 L134.750975,18.469961 L136.161202,13.8351296 C136.241459,13.6000905 136.387639,13.4152151 136.599748,13.2804976 C136.811856,13.1457801 137.052624,13.0784224 137.322059,13.0784224 L138.921463,13.0784224 C139.202363,13.0784224 139.345678,13.2074053 139.35141,13.4653749 C139.35141,13.5685628 139.325614,13.6918131 139.27402,13.8351296 L136.668539,21.7461591 C136.588282,21.9811981 136.444968,22.1660736 136.238592,22.3007911 C136.032216,22.4355086 135.811512,22.5028663 135.576473,22.5028663 L134.364022,22.5028663 C134.128983,22.5028663 133.905413,22.4326423 133.693304,22.2921922 C133.481196,22.151742 133.340748,21.9697328 133.271956,21.7461591 L131.620958,16.6211878 L129.961362,21.7461591 C129.89257,21.9697328 129.752122,22.151742 129.540014,22.2921922 C129.327905,22.4326423 129.104335,22.5028663 128.869296,22.5028663 L127.656845,22.5028663 C127.421806,22.5028663 127.201102,22.4355086 126.994726,22.3007911 C126.78835,22.1660736 126.645036,21.9811981 126.564779,21.7461591 L123.959298,13.8351296 Z M141.372162,21.4193992 C140.489333,20.582431 140.047925,19.3771576 140.047925,17.8035428 C140.047925,16.2299279 140.492199,15.0203551 141.380761,14.1747879 C142.269323,13.3292207 143.49896,12.9064435 145.069709,12.9064435 C146.651923,12.9064435 147.884426,13.3177556 148.767255,14.1403921 C149.650085,14.9630286 150.091493,16.1425055 150.091493,17.6788581 L150.091493,18.1689979 C150.091493,18.3237797 150.041333,18.4513295 149.941011,18.551651 C149.84069,18.6519725 149.71314,18.7021325 149.558358,18.7021325 L143.083352,18.7021325 C143.140679,19.4072496 143.342752,19.9203148 143.689578,20.2413437 C144.036404,20.5623726 144.5681,20.7228847 145.284682,20.7228847 C146.092987,20.7228847 146.654779,20.5308435 146.970076,20.1467553 C147.21658,19.8429244 147.546203,19.6881449 147.958954,19.6824123 L149.240197,19.6824123 C149.394979,19.6824123 149.522529,19.7325723 149.62285,19.8328938 C149.723172,19.9332154 149.773332,20.0607651 149.773332,20.2155469 C149.773332,21.86082 148.205473,22.6805779 145.069709,22.6748452 C143.487495,22.6748452 142.254992,22.2563674 141.372162,21.4193992 Z M143.066155,16.8877551 L147.064664,16.8877551 C147.007337,15.5348476 146.343792,14.858404 145.074008,14.858404 C143.804224,14.858404 143.134946,15.5348476 143.066155,16.8877551 Z M151.673699,21.9783307 L151.673699,13.611557 C151.673699,13.4567752 151.723859,13.3292255 151.82418,13.2289039 C151.924502,13.1285824 152.049185,13.0784224 152.198234,13.0784224 L154.124398,13.0784224 C154.27918,13.0784224 154.405296,13.1285824 154.502752,13.2289039 C154.600207,13.3292255 154.648934,13.4567752 154.648934,13.611557 L154.648934,14.1532905 C155.233665,13.7290738 155.79689,13.4152154 156.338626,13.211706 C156.880363,13.0081966 157.589769,12.9064435 158.466865,12.9064435 C158.621647,12.9064435 158.749197,12.9566035 158.849518,13.056925 C158.94984,13.1572465 159,13.28193 159,13.4309791 L159,14.7380188 C159,14.8928006 158.94984,15.0189172 158.849518,15.1163724 C158.749197,15.2138276 158.621647,15.2625545 158.466865,15.2625545 L158.191699,15.2625545 C158.059848,15.2625545 157.844877,15.2539556 157.546778,15.2367576 C157.24868,15.2195596 157.022243,15.2109608 156.867462,15.2109608 C156.093553,15.2109608 155.354051,15.6351712 154.648934,16.4836047 L154.648934,21.9783307 C154.648934,22.1331124 154.598774,22.259229 154.498452,22.3566842 C154.398131,22.4541394 154.273447,22.5028663 154.124398,22.5028663 L152.198234,22.5028663 C152.043453,22.5028663 151.917336,22.4541394 151.819881,22.3566842 C151.722426,22.259229 151.673699,22.1331124 151.673699,21.9783307 Z" id="Solution-Viewer"></path>
        </g>
    </g>
</svg>