<?xml version="1.0" encoding="UTF-8"?>
<svg viewBox="0 0 451 79" version="1.1" xmlns="http://www.w3.org/2000/svg" xmlns:xlink="http://www.w3.org/1999/xlink">
    <!-- Generator: Sketch 51.2 (57519) - http://www.bohemiancoding.com/sketch -->
    <title>Logo - Desktop HD</title>
    <desc>Created with Sketch.</desc>
    <defs>
        <path d="M0.0890426833,0.0228220546 L0.0890426833,13.6243718 C0.0890426833,23.2286185 -1.02661235,32.2000742 4.64023469,40.5456545 C6.84681478,43.7958838 9.77565039,46.5708281 13.1501517,48.5004951 C16.0177762,50.1377987 19.2065397,51.1630585 22.5494708,51.3478819 L22.5494708,40.4004238 C17.7786906,39.8642803 14.8937025,37.6374091 13.1501517,34.5082055 C9.33735108,27.6685295 10.9719848,16.516711 10.2404336,9.28819705 C10.1667698,8.56532837 9.73881852,5.02792265 6.85733817,2.40512476 C4.51132313,0.272307707 1.92151615,-0.000172811555 0.690980753,8.21752311e-08 C0.41719715,8.21752311e-08 0.21058787,0.0134857931 0.0890426833,0.0228220546" id="path-1"></path>
        <path d="M6.94472257e-13,9.99672051 C0.576253286,10.0535298 1.14528359,10.1499336 1.70550537,10.2857595 C2.38358513,10.4477522 3.04598573,10.6679313 3.68918375,10.945092 C4.42539974,11.2635686 5.13360463,11.65452 5.80675162,12.1210451 C6.18023281,12.3809909 6.54490548,12.663316 6.89354664,12.9680206 C7.14018516,13.1832075 7.38171474,13.4104448 7.61408346,13.6480111 C8.41054971,14.4603845 9.07453584,15.3178611 9.62594911,16.2111447 C14.0002594,23.2830455 11.3541805,32.622155 11.951398,40.5480894 C12.0042491,41.2365152 12.3477814,44.9706096 15.3497245,47.681964 C18.094635,50.1607444 21.1846634,50.0901631 21.9052002,50.0540117 L21.9052002,29.5751091 C21.9052002,24.2506978 21.8697899,19.2495831 19.6888007,14.2849641 C18.8220425,12.3138526 17.7035368,10.4596305 16.3734505,8.78306665 C15.6192652,7.82746487 14.7965495,6.9324597 13.9141121,6.10597003 C13.5335841,5.74445612 13.140548,5.39843566 12.7390557,5.06618715 L12.7353562,5.06291631 C12.1839429,4.60844168 11.6150888,4.17806797 11.0266797,3.77695967 C10.3182987,3.29132598 9.58384439,2.84718031 8.82789732,2.44607201 C6.1749477,1.03978288 3.24347271,0.168706494 0.16577632,-2.32071307e-13 L6.94472257e-13,9.99672051 Z" id="path-3"></path>
        <polygon id="path-5" points="-3.61710661e-13 2.53241872e-13 62.4942476 2.53241872e-13 62.4942476 58.4082157 -3.61710661e-13 58.4082157"></polygon>
    </defs>
    <g id="Page-1" stroke="none" stroke-width="1" fill="none" fill-rule="evenodd">
        <g id="Logo---Desktop-HD">
            <g id="Group-2-Copy" fill="#345A7E">
                <g id="Group-18-Copy" fill-rule="nonzero">
                    <path d="M-3.03201908e-13,-1.04590395e-12 L451,-1.04590395e-12 L451,31 L442,31 L442,8 L141,8 L141,71 L442,71 L442,63 L451,63 L451,79 L-3.03201908e-13,79 L-3.03201908e-13,-1.04590395e-12 Z M442,55 L442,39 L451,39 L451,55 L442,55 Z" id="Combined-Shape"></path>
                </g>
                <path d="M157.612328,46.2723589 C157.612328,45.6577725 157.794618,45.2176727 158.159203,44.9520464 C158.523788,44.6864201 158.877951,44.5536089 159.221703,44.5536089 L161.081078,44.5536089 C162.018583,44.5536089 162.721701,45.0431873 163.190453,46.0223589 C163.700872,47.0848642 164.810236,47.6161089 166.518578,47.6161089 L171.987328,47.7254839 C173.820671,47.7254839 174.737328,47.1265316 174.737328,45.9286089 C174.737328,45.4390231 174.427435,45.0171523 173.80764,44.6629839 C173.187846,44.3088155 172.377958,44.0145476 171.377953,43.7801714 C170.377948,43.5457952 169.273792,43.3114226 168.065453,43.0770464 C166.857114,42.8426702 165.656605,42.5484023 164.46389,42.1942339 C163.271176,41.8400655 162.174833,41.423403 161.174828,40.9442339 C160.174823,40.4650648 159.364935,39.8062173 158.74514,38.9676714 C158.125346,38.1291255 157.815453,37.1421562 157.815453,36.0067339 C157.815453,33.9129734 158.560237,32.3010104 160.049828,31.1707964 C161.539419,30.0405824 164.101893,29.4754839 167.737328,29.4754839 L171.706078,29.5692339 C173.841505,29.5692339 175.765965,30.1187076 177.479515,31.2176714 C179.193066,32.3166352 180.049828,33.6890173 180.049828,35.3348589 C180.049828,35.9494453 179.867538,36.3921492 179.502953,36.6629839 C179.138368,36.9338186 178.789413,37.0692339 178.456078,37.0692339 L176.596703,37.0692339 C175.659198,37.0692339 174.95608,36.5744472 174.487328,35.5848589 C173.976909,34.5223536 172.867545,33.9911089 171.159203,33.9911089 L166.456078,33.8973589 C164.622735,33.8973589 163.706078,34.4963112 163.706078,35.6942339 C163.706078,36.3504872 164.286801,36.8869402 165.448265,37.3036089 C166.60973,37.7202776 168.015966,38.0874615 169.667015,38.4051714 C171.318065,38.7228813 172.976903,39.10569 174.643578,39.5536089 C176.310253,40.0015278 177.724301,40.7384996 178.885765,41.7645464 C180.04723,42.7905932 180.627953,44.0692262 180.627953,45.6004839 C180.627953,47.6942444 179.880565,49.3062074 178.385765,50.4364214 C176.890966,51.5666354 174.331096,52.1317339 170.706078,52.1317339 L165.971703,52.0379839 C163.836276,52.0379839 161.909212,51.4885102 160.190453,50.3895464 C158.471694,49.2905826 157.612328,47.9182005 157.612328,46.2723589 Z M184.971703,50.0692339 C183.346695,48.5692264 182.534203,46.358311 182.534203,43.4364214 C182.534203,40.5145318 183.346695,38.3062205 184.971703,36.8114214 C186.596711,35.3166223 188.932625,34.5692339 191.979515,34.5692339 C195.026406,34.5692339 197.36232,35.3166223 198.987328,36.8114214 C200.612336,38.3062205 201.424828,40.5145318 201.424828,43.4364214 C201.424828,46.358311 200.612336,48.5692264 198.987328,50.0692339 C197.36232,51.5692414 195.026406,52.3192339 191.979515,52.3192339 C188.932625,52.3192339 186.596711,51.5692414 184.971703,50.0692339 Z M188.924828,39.3817339 C188.278991,40.2254881 187.956078,41.574433 187.956078,43.4286089 C187.956078,45.2827848 188.278991,46.636938 188.924828,47.4911089 C189.570665,48.3452798 190.588884,48.7723589 191.979515,48.7723589 C193.370147,48.7723589 194.390971,48.3452798 195.042015,47.4911089 C195.69306,46.636938 196.018578,45.2827848 196.018578,43.4286089 C196.018578,41.574433 195.69306,40.2254881 195.042015,39.3817339 C194.390971,38.5379797 193.370147,38.1161089 191.979515,38.1161089 C190.588884,38.1161089 189.570665,38.5379797 188.924828,39.3817339 Z M204.299828,51.0536089 L204.299828,30.5692339 C204.299828,30.2879825 204.390973,30.056214 204.573265,29.8739214 C204.755558,29.6916288 204.982118,29.6004839 205.252953,29.6004839 L208.752953,29.6004839 C209.034204,29.6004839 209.263369,29.6916288 209.440453,29.8739214 C209.617537,30.056214 209.706078,30.2879825 209.706078,30.5692339 L209.706078,51.0536089 C209.706078,51.3348603 209.614933,51.5640247 209.43264,51.7411089 C209.250348,51.9181931 209.023788,52.0067339 208.752953,52.0067339 L205.252953,52.0067339 C204.971702,52.0067339 204.742537,51.9181931 204.565453,51.7411089 C204.388369,51.5640247 204.299828,51.3348603 204.299828,51.0536089 Z M213.534203,44.8036089 L213.534203,35.8504839 C213.534203,35.5692325 213.625348,35.337464 213.80764,35.1551714 C213.989933,34.9728788 214.216493,34.8817339 214.487328,34.8817339 L217.987328,34.8817339 C218.268579,34.8817339 218.497744,34.9728788 218.674828,35.1551714 C218.851912,35.337464 218.940453,35.5692325 218.940453,35.8504839 L218.940453,44.8036089 C218.940453,47.3036214 219.930026,48.5536089 221.909203,48.5536089 C223.211293,48.5536089 224.612321,47.8036164 226.112328,46.3036089 L226.112328,35.8504839 C226.112328,35.5692325 226.203473,35.337464 226.385765,35.1551714 C226.568058,34.9728788 226.794618,34.8817339 227.065453,34.8817339 L230.549828,34.8817339 C230.831079,34.8817339 231.062848,34.9728788 231.24514,35.1551714 C231.427433,35.337464 231.518578,35.5692325 231.518578,35.8504839 L231.518578,51.0536089 C231.518578,51.3348603 231.427433,51.5640247 231.24514,51.7411089 C231.062848,51.9181931 230.831079,52.0067339 230.549828,52.0067339 L227.065453,52.0067339 C226.784202,52.0067339 226.555037,51.915589 226.377953,51.7332964 C226.200869,51.5510038 226.112328,51.3244436 226.112328,51.0536089 L226.112328,50.0536089 C224.320652,51.5640331 222.497754,52.3192339 220.643578,52.3192339 C218.44565,52.3192339 216.711293,51.7020526 215.440453,50.4676714 C214.169613,49.2332902 213.534203,47.3452883 213.534203,44.8036089 Z M235.346703,45.2879839 L235.346703,30.5692339 C235.346703,30.2879825 235.437848,30.056214 235.62014,29.8739214 C235.802433,29.6916288 236.028993,29.6004839 236.299828,29.6004839 L239.799828,29.6004839 C240.081079,29.6004839 240.310244,29.6916288 240.487328,29.8739214 C240.664412,30.056214 240.752953,30.2879825 240.752953,30.5692339 L240.752953,35.7879839 L245.112328,35.7879839 C245.393579,35.7879839 245.622744,35.8765247 245.799828,36.0536089 C245.976912,36.2306931 246.065453,36.4598575 246.065453,36.7411089 L246.065453,38.6004839 C246.065453,38.8817353 245.974308,39.1108997 245.792015,39.2879839 C245.609723,39.4650681 245.383163,39.5536089 245.112328,39.5536089 L240.752953,39.5536089 L240.752953,45.2879839 C240.752953,46.3504892 241.00295,47.1707935 241.502953,47.7489214 C242.002955,48.3270493 242.669615,48.6161089 243.502953,48.6161089 C243.784204,48.6161089 244.159201,48.5848592 244.627953,48.5223589 C245.096705,48.4598586 245.435244,48.4286089 245.643578,48.4286089 L246.221703,48.4286089 C246.502954,48.4286089 246.734723,48.5171497 246.917015,48.6942339 C247.099308,48.8713181 247.190453,49.1004825 247.190453,49.3817339 L247.190453,51.0536089 C247.190453,51.2931934 247.099308,51.5015247 246.917015,51.6786089 C246.734723,51.8556931 246.502954,51.965067 246.221703,52.0067339 C245.159198,52.2150683 243.773795,52.3192339 242.065453,52.3192339 C237.586264,52.3296506 235.346703,49.9859241 235.346703,45.2879839 Z M249.737328,31.6161089 L249.737328,31.0848589 C249.737328,30.5327728 249.896181,30.0952772 250.21389,29.7723589 C250.5316,29.4494406 250.9717,29.2879839 251.534203,29.2879839 L253.471703,29.2879839 C254.023789,29.2879839 254.461285,29.4468365 254.784203,29.7645464 C255.107121,30.0822563 255.268578,30.5223561 255.268578,31.0848589 L255.268578,31.6161089 C255.268578,32.168195 255.109725,32.6056906 254.792015,32.9286089 C254.474306,33.2515272 254.034206,33.4129839 253.471703,33.4129839 L251.534203,33.4129839 C250.982117,33.4129839 250.544621,33.2515272 250.221703,32.9286089 C249.898785,32.6056906 249.737328,32.168195 249.737328,31.6161089 Z M249.799828,51.0536089 L249.799828,36.2254839 C249.799828,35.9442325 249.890973,35.7150681 250.073265,35.5379839 C250.255558,35.3608997 250.482118,35.2723589 250.752953,35.2723589 L254.252953,35.2723589 C254.534204,35.2723589 254.763369,35.3635038 254.940453,35.5457964 C255.117537,35.728089 255.206078,35.9546492 255.206078,36.2254839 L255.206078,51.0536089 C255.206078,51.3348603 255.114933,51.5640247 254.93264,51.7411089 C254.750348,51.9181931 254.523788,52.0067339 254.252953,52.0067339 L250.752953,52.0067339 C250.471702,52.0067339 250.242537,51.9181931 250.065453,51.7411089 C249.888369,51.5640247 249.799828,51.3348603 249.799828,51.0536089 Z M260.581078,50.0692339 C258.95607,48.5692264 258.143578,46.358311 258.143578,43.4364214 C258.143578,40.5145318 258.95607,38.3062205 260.581078,36.8114214 C262.206086,35.3166223 264.542,34.5692339 267.58889,34.5692339 C270.635781,34.5692339 272.971695,35.3166223 274.596703,36.8114214 C276.221711,38.3062205 277.034203,40.5145318 277.034203,43.4364214 C277.034203,46.358311 276.221711,48.5692264 274.596703,50.0692339 C272.971695,51.5692414 270.635781,52.3192339 267.58889,52.3192339 C264.542,52.3192339 262.206086,51.5692414 260.581078,50.0692339 Z M264.534203,39.3817339 C263.888366,40.2254881 263.565453,41.574433 263.565453,43.4286089 C263.565453,45.2827848 263.888366,46.636938 264.534203,47.4911089 C265.18004,48.3452798 266.198259,48.7723589 267.58889,48.7723589 C268.979522,48.7723589 270.000346,48.3452798 270.65139,47.4911089 C271.302435,46.636938 271.627953,45.2827848 271.627953,43.4286089 C271.627953,41.574433 271.302435,40.2254881 270.65139,39.3817339 C270.000346,38.5379797 268.979522,38.1161089 267.58889,38.1161089 C266.198259,38.1161089 265.18004,38.5379797 264.534203,39.3817339 Z M279.909203,51.0536089 L279.909203,35.8504839 C279.909203,35.5692325 280.000348,35.337464 280.18264,35.1551714 C280.364933,34.9728788 280.591493,34.8817339 280.862328,34.8817339 L284.362328,34.8817339 C284.643579,34.8817339 284.872744,34.9728788 285.049828,35.1551714 C285.226912,35.337464 285.315453,35.5692325 285.315453,35.8504839 L285.315453,36.8348589 C287.107129,35.3244347 288.930027,34.5692339 290.784203,34.5692339 C292.982131,34.5692339 294.716488,35.1864152 295.987328,36.4207964 C297.258168,37.6551776 297.893578,39.5431795 297.893578,42.0848589 L297.893578,51.0536089 C297.893578,51.3348603 297.802433,51.5640247 297.62014,51.7411089 C297.437848,51.9181931 297.206079,52.0067339 296.924828,52.0067339 L293.440453,52.0067339 C293.159202,52.0067339 292.930037,51.915589 292.752953,51.7332964 C292.575869,51.5510038 292.487328,51.3244436 292.487328,51.0536089 L292.487328,42.0848589 C292.487328,39.5848464 291.492546,38.3400672 289.502953,38.3504839 C288.200863,38.3504839 286.805044,39.0952681 285.315453,40.5848589 L285.315453,51.0536089 C285.315453,51.3348603 285.224308,51.5640247 285.042015,51.7411089 C284.859723,51.9181931 284.633163,52.0067339 284.362328,52.0067339 L280.862328,52.0067339 C280.581077,52.0067339 280.351912,51.9181931 280.174828,51.7411089 C279.997744,51.5640247 279.909203,51.3348603 279.909203,51.0536089 Z M311.409203,30.9129839 C311.346703,30.7879833 311.315453,30.6681928 311.315453,30.5536089 C311.315453,30.366108 311.388369,30.1890264 311.534203,30.0223589 C311.773788,29.7411075 312.07066,29.6004839 312.424828,29.6004839 L315.846703,29.6004839 C316.659207,29.6004839 317.278993,30.0952706 317.706078,31.0848589 L323.752953,44.5536089 L329.799828,31.0848589 C330.226913,30.1056873 330.846699,29.6109006 331.659203,29.6004839 L335.081078,29.6004839 C335.445663,29.6004839 335.742535,29.7411075 335.971703,30.0223589 C336.117537,30.1890264 336.190453,30.366108 336.190453,30.5536089 C336.190453,30.6681928 336.164412,30.7879833 336.112328,30.9129839 L327.112328,50.4129839 C326.622742,51.4754892 325.877958,52.0067339 324.877953,52.0067339 L322.627953,52.0067339 C321.627948,52.0067339 320.883164,51.4754892 320.393578,50.4129839 L311.409203,30.9129839 Z M338.440453,31.6161089 L338.440453,31.0848589 C338.440453,30.5327728 338.599306,30.0952772 338.917015,29.7723589 C339.234725,29.4494406 339.674825,29.2879839 340.237328,29.2879839 L342.174828,29.2879839 C342.726914,29.2879839 343.16441,29.4468365 343.487328,29.7645464 C343.810246,30.0822563 343.971703,30.5223561 343.971703,31.0848589 L343.971703,31.6161089 C343.971703,32.168195 343.81285,32.6056906 343.49514,32.9286089 C343.177431,33.2515272 342.737331,33.4129839 342.174828,33.4129839 L340.237328,33.4129839 C339.685242,33.4129839 339.247746,33.2515272 338.924828,32.9286089 C338.60191,32.6056906 338.440453,32.168195 338.440453,31.6161089 Z M338.502953,51.0536089 L338.502953,36.2254839 C338.502953,35.9442325 338.594098,35.7150681 338.77639,35.5379839 C338.958683,35.3608997 339.185243,35.2723589 339.456078,35.2723589 L342.956078,35.2723589 C343.237329,35.2723589 343.466494,35.3635038 343.643578,35.5457964 C343.820662,35.728089 343.909203,35.9546492 343.909203,36.2254839 L343.909203,51.0536089 C343.909203,51.3348603 343.818058,51.5640247 343.635765,51.7411089 C343.453473,51.9181931 343.226913,52.0067339 342.956078,52.0067339 L339.456078,52.0067339 C339.174827,52.0067339 338.945662,51.9181931 338.768578,51.7411089 C338.591494,51.5640247 338.502953,51.3348603 338.502953,51.0536089 Z M349.252953,50.0379839 C347.648778,48.517143 346.846703,46.3270607 346.846703,43.4676714 C346.846703,40.6082821 347.653987,38.4103874 349.268578,36.8739214 C350.883169,35.3374554 353.117522,34.5692339 355.971703,34.5692339 C358.846717,34.5692339 361.086278,35.3166223 362.690453,36.8114214 C364.294628,38.3062205 365.096703,40.4494283 365.096703,43.2411089 L365.096703,44.1317339 C365.096703,44.4129853 365.005558,44.6447538 364.823265,44.8270464 C364.640973,45.009339 364.409204,45.1004839 364.127953,45.1004839 L352.362328,45.1004839 C352.466495,46.3817403 352.833679,47.3140226 353.46389,47.8973589 C354.094102,48.4806952 355.060238,48.7723589 356.362328,48.7723589 C357.831085,48.7723589 358.851908,48.4234041 359.424828,47.7254839 C359.872747,47.1733978 360.471699,46.8921506 361.221703,46.8817339 L363.549828,46.8817339 C363.831079,46.8817339 364.062848,46.9728788 364.24514,47.1551714 C364.427433,47.337464 364.518578,47.5692325 364.518578,47.8504839 C364.518578,50.8400822 361.669648,52.3296506 355.971703,52.3192339 C353.096689,52.3192339 350.857128,51.5588248 349.252953,50.0379839 Z M352.331078,41.8036089 L359.596703,41.8036089 C359.492536,39.3452633 358.286819,38.1161089 355.979515,38.1161089 C353.672212,38.1161089 352.456079,39.3452633 352.331078,41.8036089 Z M366.190453,36.2567339 C366.107119,35.9858992 366.060245,35.7619431 366.049828,35.5848589 C366.049828,35.1265233 366.310242,34.8921506 366.831078,34.8817339 L369.737328,34.8817339 C370.226914,34.8817339 370.664409,35.0041285 371.049828,35.2489214 C371.435247,35.4937143 371.700869,35.8296484 371.846703,36.2567339 L374.409203,44.6786089 L376.940453,36.2567339 C377.221704,35.3400627 377.815448,34.8817339 378.721703,34.8817339 L381.487328,34.8817339 C382.403999,34.8817339 382.997743,35.3400627 383.268578,36.2567339 L385.799828,44.6786089 L388.362328,36.2567339 C388.508162,35.8296484 388.773784,35.4937143 389.159203,35.2489214 C389.544622,35.0041285 389.982117,34.8817339 390.471703,34.8817339 L393.377953,34.8817339 C393.888372,34.8817339 394.148786,35.1161066 394.159203,35.5848589 C394.159203,35.7723598 394.112328,35.9963159 394.018578,36.2567339 L389.284203,50.6317339 C389.138369,51.0588194 388.877955,51.3947535 388.502953,51.6395464 C388.127951,51.8843393 387.726913,52.0067339 387.299828,52.0067339 L385.096703,52.0067339 C384.669618,52.0067339 384.263372,51.879131 383.877953,51.6239214 C383.492534,51.3687118 383.237329,51.0379859 383.112328,50.6317339 L380.112328,41.3192339 L377.096703,50.6317339 C376.971702,51.0379859 376.716497,51.3687118 376.331078,51.6239214 C375.945659,51.879131 375.539413,52.0067339 375.112328,52.0067339 L372.909203,52.0067339 C372.482118,52.0067339 372.08108,51.8843393 371.706078,51.6395464 C371.331076,51.3947535 371.070662,51.0588194 370.924828,50.6317339 L366.190453,36.2567339 Z M397.518578,50.0379839 C395.914403,48.517143 395.112328,46.3270607 395.112328,43.4676714 C395.112328,40.6082821 395.919612,38.4103874 397.534203,36.8739214 C399.148794,35.3374554 401.383147,34.5692339 404.237328,34.5692339 C407.112342,34.5692339 409.351903,35.3166223 410.956078,36.8114214 C412.560253,38.3062205 413.362328,40.4494283 413.362328,43.2411089 L413.362328,44.1317339 C413.362328,44.4129853 413.271183,44.6447538 413.08889,44.8270464 C412.906598,45.009339 412.674829,45.1004839 412.393578,45.1004839 L400.627953,45.1004839 C400.73212,46.3817403 401.099304,47.3140226 401.729515,47.8973589 C402.359727,48.4806952 403.325863,48.7723589 404.627953,48.7723589 C406.09671,48.7723589 407.117533,48.4234041 407.690453,47.7254839 C408.138372,47.1733978 408.737324,46.8921506 409.487328,46.8817339 L411.815453,46.8817339 C412.096704,46.8817339 412.328473,46.9728788 412.510765,47.1551714 C412.693058,47.337464 412.784203,47.5692325 412.784203,47.8504839 C412.784203,50.8400822 409.935273,52.3296506 404.237328,52.3192339 C401.362314,52.3192339 399.122753,51.5588248 397.518578,50.0379839 Z M400.596703,41.8036089 L407.862328,41.8036089 C407.758161,39.3452633 406.552444,38.1161089 404.24514,38.1161089 C401.937837,38.1161089 400.721704,39.3452633 400.596703,41.8036089 Z M416.237328,51.0536089 L416.237328,35.8504839 C416.237328,35.5692325 416.328473,35.337464 416.510765,35.1551714 C416.693058,34.9728788 416.919618,34.8817339 417.190453,34.8817339 L420.690453,34.8817339 C420.971704,34.8817339 421.200869,34.9728788 421.377953,35.1551714 C421.555037,35.337464 421.643578,35.5692325 421.643578,35.8504839 L421.643578,36.8348589 C422.706083,36.0640217 423.729511,35.4937149 424.71389,35.1239214 C425.69827,34.7541279 426.98732,34.5692339 428.581078,34.5692339 C428.862329,34.5692339 429.094098,34.6603788 429.27639,34.8426714 C429.458683,35.024964 429.549828,35.2515242 429.549828,35.5223589 L429.549828,37.8973589 C429.549828,38.1786103 429.458683,38.4077747 429.27639,38.5848589 C429.094098,38.7619431 428.862329,38.8504839 428.581078,38.8504839 L428.081078,38.8504839 C427.841493,38.8504839 427.450872,38.8348591 426.909203,38.8036089 C426.367534,38.7723587 425.956079,38.7567339 425.674828,38.7567339 C424.268571,38.7567339 422.924834,39.5275595 421.643578,41.0692339 L421.643578,51.0536089 C421.643578,51.3348603 421.552433,51.5640247 421.37014,51.7411089 C421.187848,51.9181931 420.961288,52.0067339 420.690453,52.0067339 L417.190453,52.0067339 C416.909202,52.0067339 416.680037,51.9181931 416.502953,51.7411089 C416.325869,51.5640247 416.237328,51.3348603 416.237328,51.0536089 Z" id="Solution-Viewer"></path>
            </g>
            <g id="Group-5" transform="translate(28.000000, 8.000000)">
                <g id="Logo">
                    <g id="Group-3" transform="translate(0.000000, 7.060334)">
                        <g id="Fill-1-Clipped">
                            <mask id="mask-2" fill="white">
                                <use xlink:href="#path-1"></use>
                            </mask>
                            <g id="path-1"></g>
                            <path d="M0.0890426833,0.0228220546 L0.0890426833,13.6243718 C0.0890426833,23.2286185 -1.02661235,32.2000742 4.64023469,40.5456545 C6.84681478,43.7958838 9.77565039,46.5708281 13.1501517,48.5004951 C16.0177762,50.1377987 19.2065397,51.1630585 22.5494708,51.3478819 L22.5494708,40.4004238 C17.7786906,39.8642803 14.8937025,37.6374091 13.1501517,34.5082055 C9.33735108,27.6685295 10.9719848,16.516711 10.2404336,9.28819705 C10.1667698,8.56532837 9.73881852,5.02792265 6.85733817,2.40512476 C4.51132313,0.272307707 1.92151615,-0.000172811555 0.690980753,8.21752311e-08 C0.41719715,8.21752311e-08 0.21058787,0.0134857931 0.0890426833,0.0228220546" id="Fill-1" fill="#FFFFFF" fill-rule="nonzero" mask="url(#mask-2)"></path>
                        </g>
                    </g>
                    <g id="Group-6" transform="translate(61.849977, 7.702182)">
                        <g id="Fill-4-Clipped">
                            <mask id="mask-4" fill="white">
                                <use xlink:href="#path-3"></use>
                            </mask>
                            <g id="path-3"></g>
                            <path d="M6.94472257e-13,9.99672051 C0.576253286,10.0535298 1.14528359,10.1499336 1.70550537,10.2857595 C2.38358513,10.4477522 3.04598573,10.6679313 3.68918375,10.945092 C4.42539974,11.2635686 5.13360463,11.65452 5.80675162,12.1210451 C6.18023281,12.3809909 6.54490548,12.663316 6.89354664,12.9680206 C7.14018516,13.1832075 7.38171474,13.4104448 7.61408346,13.6480111 C8.41054971,14.4603845 9.07453584,15.3178611 9.62594911,16.2111447 C14.0002594,23.2830455 11.3541805,32.622155 11.951398,40.5480894 C12.0042491,41.2365152 12.3477814,44.9706096 15.3497245,47.681964 C18.094635,50.1607444 21.1846634,50.0901631 21.9052002,50.0540117 L21.9052002,29.5751091 C21.9052002,24.2506978 21.8697899,19.2495831 19.6888007,14.2849641 C18.8220425,12.3138526 17.7035368,10.4596305 16.3734505,8.78306665 C15.6192652,7.82746487 14.7965495,6.9324597 13.9141121,6.10597003 C13.5335841,5.74445612 13.140548,5.39843566 12.7390557,5.06618715 L12.7353562,5.06291631 C12.1839429,4.60844168 11.6150888,4.17806797 11.0266797,3.77695967 C10.3182987,3.29132598 9.58384439,2.84718031 8.82789732,2.44607201 C6.1749477,1.03978288 3.24347271,0.168706494 0.16577632,-2.32071307e-13 L6.94472257e-13,9.99672051 Z" id="Fill-4" fill="#FFFFFF" fill-rule="nonzero" mask="url(#mask-4)"></path>
                        </g>
                    </g>
                    <g id="Group-14" transform="translate(10.952600, 0.000000)">
                        <path d="M65.07133,13.188485 L57.9936778,19.8973042 C57.6420153,19.5995646 57.2743681,19.3233686 56.8978406,19.0692212 C56.2193806,18.6131023 55.5053991,18.2310395 54.7630005,17.9196669 L62.1603458,10.9114249 C62.7535543,11.3035862 63.327226,11.7243601 63.8831369,12.168529 L63.8866891,12.1718952 C64.2916338,12.496901 64.6876981,12.8350349 65.07133,13.188485" id="Fill-7" fill-opacity="0.432914402" fill="#A1A1A1" fill-rule="nonzero"></path>
                        <path d="M11.5968707,47.1519426 C10.8657839,47.1449003 9.90240045,47.0452786 8.84575293,46.6723842 C8.45093497,46.5329138 8.09756772,46.3747214 7.78582388,46.2130937 C6.96993586,46.3199294 4.84213306,46.7084541 2.90137656,48.4317382 C0.668392601,50.4150692 0.134542076,52.8772716 5.60690383e-13,53.6395496 C0.780482212,54.1594719 1.56096442,54.6790507 2.34127393,55.198973 L11.5968707,47.1519426 Z" id="Fill-9" fill-opacity="0.142153533" fill="#000000" fill-rule="nonzero" opacity="0.260379464"></path>
                        <g id="Group-13" transform="translate(1.932812, 0.000000)">
                            <g id="Fill-11-Clipped">
                                <mask id="mask-6" fill="white">
                                    <use xlink:href="#path-5"></use>
                                </mask>
                                <g id="path-5"></g>
                                <path d="M62.3288169,12.2398357 L62.3251211,12.2363961 L49.8880793,2.66217604e-13 L49.7684061,7.17845642 L49.7655902,7.34390143 C49.3064322,7.32223192 48.8441063,7.31397687 48.3798445,7.32481163 C38.6423143,7.5516536 29.8287319,15.2238654 27.0128909,25.3516114 C25.5380941,30.6606423 26.2297351,36.36368 23.0918322,41.1462793 C20.4472296,45.1716495 15.9239329,47.8156741 11.052352,47.5721501 C10.7552808,47.537926 10.4596175,47.5143647 10.166066,47.5000903 C10.1269962,47.4959628 10.0859905,47.4933831 10.0474487,47.4890836 L10.0474487,47.494587 C6.61476253,47.3599264 3.46982009,48.5888974 1.64409917,50.9550019 C0.475701142,52.4689442 0.115625472,54.100693 -3.61710661e-13,55.1846847 C1.08445077,55.8923835 2.59884527,56.7276916 4.52417657,57.3705539 C6.70786128,58.0999222 8.64639183,58.3234966 10.0474487,58.3787022 C10.3747902,58.3960722 10.7038917,58.4062191 11.034753,58.4079389 C20.6895679,58.4595329 30.075118,51.2931151 33.2077411,41.3631464 C34.5171072,37.2149823 34.7758126,32.7605214 35.8687109,28.5401256 C37.0249656,24.0808492 39.4008314,19.7966487 43.8762588,18.1251725 C45.7465052,17.4262447 47.6992909,17.1607072 49.6003356,17.3223686 L49.4709829,25.0473783 L55.4036079,19.2875871 L62.4942476,12.403217 L62.3288169,12.2398357 Z" id="Fill-11" fill="#67C0ED" fill-rule="nonzero" mask="url(#mask-6)"></path>
                            </g>
                        </g>
                    </g>
                </g>
            </g>
        </g>
    </g>
</svg>