<?xml version="1.0" encoding="UTF-8"?>
<svg width="357px" height="60px" viewBox="0 0 357 60" version="1.1" xmlns="http://www.w3.org/2000/svg" xmlns:xlink="http://www.w3.org/1999/xlink">
    <!-- Generator: Sketch 51.2 (57519) - http://www.bohemiancoding.com/sketch -->
    <title>Logo - Tablet</title>
    <desc>Created with Sketch.</desc>
    <defs>
        <path d="M0.067141042,0.0172085619 L0.067141042,10.2732138 C0.067141042,17.5151242 -0.77409867,24.2798898 3.49888594,30.5727253 C5.16271817,33.0235025 7.37115426,35.1158996 9.91563658,36.5709305 C12.0779176,37.80551 14.4823476,38.5785888 17.003025,38.7179516 L17.003025,30.4632167 C13.4057036,30.0589473 11.2303299,28.3798149 9.91563658,26.0202949 C7.0406625,20.8629596 8.27322879,12.4541304 7.7216157,7.00359879 C7.66607087,6.45853259 7.34338184,3.79121511 5.17065315,1.81354129 C3.40168248,0.205328754 1.44888487,-0.000130305461 0.521021673,6.19627215e-08 C0.314580046,6.19627215e-08 0.158790016,0.010168721 0.067141042,0.0172085619" id="path-1"></path>
        <path d="M6.94472257e-13,7.53784823 C0.434513479,7.58068428 0.863580595,7.65337578 1.28600581,7.7557929 C1.79729972,7.87794057 2.29677103,8.04396275 2.781763,8.25295079 C3.33689349,8.49309233 3.87090271,8.7878823 4.37847716,9.1396572 C4.66009396,9.33566462 4.93506886,9.54854685 5.1979555,9.77830389 C5.38392886,9.94056169 5.56604992,10.1119059 5.74126339,10.2910385 C6.34182452,10.9035942 6.84249138,11.550159 7.25827468,12.2237236 C10.5566451,17.5561638 8.56141661,24.5981522 9.01173782,30.5745612 C9.05158926,31.0936564 9.31062358,33.9092835 11.5741851,35.9537317 C13.6439358,37.8228117 15.9739163,37.7695912 16.5172242,37.7423319 L16.5172242,22.3005818 C16.5172242,18.2858047 16.4905238,14.5148037 14.8459879,10.7713216 C14.1924244,9.28504019 13.3490352,7.8868972 12.3461074,6.62271425 C11.7774274,5.90215982 11.1570734,5.22729719 10.4916873,4.60409745 C10.2047569,4.33150435 9.90839511,4.07059381 9.60565704,3.82006777 L9.60286744,3.81760145 C9.18708413,3.47491298 8.75814986,3.15039739 8.31447055,2.84794886 C7.78032848,2.48176546 7.22652637,2.14686537 6.65651802,1.84441683 C4.65610882,0.784029676 2.44568256,0.127210113 0.125000668,-2.32071307e-13 L6.94472257e-13,7.53784823 Z" id="path-3"></path>
        <polygon id="path-5" points="-3.61710661e-13 2.53241872e-13 47.1226691 2.53241872e-13 47.1226691 44.0416699 -3.61710661e-13 44.0416699"></polygon>
    </defs>
    <g id="Page-1" stroke="none" stroke-width="1" fill="none" fill-rule="evenodd">
        <g id="Logo---Tablet">
            <g id="Group-2-Copy" fill="#FFFFFF">
                <g id="Group-18-Copy" fill-rule="nonzero">
                    <path d="M0,-9.09494702e-13 L356.588659,-9.09494702e-13 L356.588659,23.3749953 L349.80237,23.3749953 L349.80237,6.03225685 L96.318527,6.03225685 L96.318527,53.5362796 L349.80237,53.5362796 L349.80237,47.5040227 L356.588659,47.5040227 L356.588659,59.5685364 L0,59.5685364 L0,-9.09494702e-13 Z M349.80237,41.4717659 L349.80237,29.4072522 L356.588659,29.4072522 L356.588659,41.4717659 L349.80237,41.4717659 Z" id="Combined-Shape"></path>
                </g>
                <path d="M105.833984,34.9824219 C105.833984,34.4446588 105.993488,34.0595715 106.3125,33.8271484 C106.631512,33.5947254 106.941405,33.4785156 107.242188,33.4785156 L108.869141,33.4785156 C109.689457,33.4785156 110.304685,33.9068968 110.714844,34.7636719 C111.161461,35.693364 112.132154,36.1582031 113.626953,36.1582031 L118.412109,36.2539062 C120.016284,36.2539062 120.818359,35.7298229 120.818359,34.6816406 C120.818359,34.2532531 120.547203,33.8841161 120.004883,33.5742188 C119.462562,33.2643214 118.753911,33.006837 117.878906,32.8017578 C117.003902,32.5966787 116.037766,32.3916026 114.980469,32.1865234 C113.923172,31.9814443 112.872727,31.7239599 111.829102,31.4140625 C110.785477,31.1041651 109.826176,30.7395854 108.951172,30.3203125 C108.076167,29.9010396 107.367516,29.3245479 106.825195,28.5908203 C106.282875,27.8570927 106.011719,26.9934946 106.011719,26 C106.011719,24.1679596 106.663405,22.7574919 107.966797,21.7685547 C109.270189,20.7796175 111.512354,20.2851562 114.693359,20.2851562 L118.166016,20.3671875 C120.034515,20.3671875 121.718417,20.847977 123.217773,21.8095703 C124.71713,22.7711637 125.466797,23.971998 125.466797,25.4121094 C125.466797,25.9498725 125.307293,26.3372384 124.988281,26.5742188 C124.669269,26.8111991 124.363934,26.9296875 124.072266,26.9296875 L122.445312,26.9296875 C121.624996,26.9296875 121.009768,26.4967491 120.599609,25.6308594 C120.152993,24.7011672 119.182299,24.2363281 117.6875,24.2363281 L113.572266,24.1542969 C111.968091,24.1542969 111.166016,24.6783802 111.166016,25.7265625 C111.166016,26.3007841 111.674149,26.7701805 112.69043,27.1347656 C113.706711,27.4993508 114.937167,27.8206366 116.381836,28.0986328 C117.826505,28.376629 119.277987,28.7115866 120.736328,29.1035156 C122.194669,29.4954447 123.431961,30.140295 124.448242,31.0380859 C125.464523,31.9358769 125.972656,33.0546808 125.972656,34.3945312 C125.972656,36.2265717 125.318691,37.6370393 124.010742,38.6259766 C122.702793,39.6149138 120.462906,40.109375 117.291016,40.109375 L113.148438,40.0273438 C111.279939,40.0273438 109.593758,39.5465543 108.089844,38.5849609 C106.58593,37.6233676 105.833984,36.4225332 105.833984,34.9824219 Z M129.773438,38.3046875 C128.351555,36.9921809 127.640625,35.05763 127.640625,32.5009766 C127.640625,29.9443232 128.351555,28.0120508 129.773438,26.7041016 C131.19532,25.3961523 133.239244,24.7421875 135.905273,24.7421875 C138.571302,24.7421875 140.615227,25.3961523 142.037109,26.7041016 C143.458991,28.0120508 144.169922,29.9443232 144.169922,32.5009766 C144.169922,35.05763 143.458991,36.9921809 142.037109,38.3046875 C140.615227,39.6171941 138.571302,40.2734375 135.905273,40.2734375 C133.239244,40.2734375 131.19532,39.6171941 129.773438,38.3046875 Z M133.232422,28.953125 C132.667315,29.6914099 132.384766,30.8717367 132.384766,32.4941406 C132.384766,34.1165446 132.667315,35.3014286 133.232422,36.0488281 C133.797529,36.7962277 134.68847,37.1699219 135.905273,37.1699219 C137.122076,37.1699219 138.015297,36.7962277 138.584961,36.0488281 C139.154625,35.3014286 139.439453,34.1165446 139.439453,32.4941406 C139.439453,30.8717367 139.154625,29.6914099 138.584961,28.953125 C138.015297,28.2148401 137.122076,27.8457031 135.905273,27.8457031 C134.68847,27.8457031 133.797529,28.2148401 133.232422,28.953125 Z M146.685547,39.1660156 L146.685547,21.2421875 C146.685547,20.9960925 146.765299,20.7932951 146.924805,20.6337891 C147.084311,20.4742831 147.282551,20.3945312 147.519531,20.3945312 L150.582031,20.3945312 C150.828126,20.3945312 151.028645,20.4742831 151.183594,20.6337891 C151.338542,20.7932951 151.416016,20.9960925 151.416016,21.2421875 L151.416016,39.1660156 C151.416016,39.4121106 151.336264,39.6126294 151.176758,39.7675781 C151.017252,39.9225268 150.819012,40 150.582031,40 L147.519531,40 C147.273436,40 147.072917,39.9225268 146.917969,39.7675781 C146.76302,39.6126294 146.685547,39.4121106 146.685547,39.1660156 Z M154.765625,33.6972656 L154.765625,25.8632812 C154.765625,25.6171863 154.845377,25.4143888 155.004883,25.2548828 C155.164389,25.0953768 155.362629,25.015625 155.599609,25.015625 L158.662109,25.015625 C158.908204,25.015625 159.108723,25.0953768 159.263672,25.2548828 C159.418621,25.4143888 159.496094,25.6171863 159.496094,25.8632812 L159.496094,33.6972656 C159.496094,35.8847766 160.361971,36.9785156 162.09375,36.9785156 C163.233079,36.9785156 164.458978,36.3222722 165.771484,35.0097656 L165.771484,25.8632812 C165.771484,25.6171863 165.851236,25.4143888 166.010742,25.2548828 C166.170248,25.0953768 166.368488,25.015625 166.605469,25.015625 L169.654297,25.015625 C169.900392,25.015625 170.103189,25.0953768 170.262695,25.2548828 C170.422201,25.4143888 170.501953,25.6171863 170.501953,25.8632812 L170.501953,39.1660156 C170.501953,39.4121106 170.422201,39.6126294 170.262695,39.7675781 C170.103189,39.9225268 169.900392,40 169.654297,40 L166.605469,40 C166.359374,40 166.158855,39.9202482 166.003906,39.7607422 C165.848958,39.6012362 165.771484,39.402996 165.771484,39.1660156 L165.771484,38.2910156 C164.203768,39.6126368 162.608732,40.2734375 160.986328,40.2734375 C159.063141,40.2734375 157.545578,39.7334038 156.433594,38.6533203 C155.321609,37.5732368 154.765625,35.9212351 154.765625,33.6972656 Z M173.851562,34.1210938 L173.851562,21.2421875 C173.851562,20.9960925 173.931314,20.7932951 174.09082,20.6337891 C174.250326,20.4742831 174.448567,20.3945312 174.685547,20.3945312 L177.748047,20.3945312 C177.994142,20.3945312 178.194661,20.4742831 178.349609,20.6337891 C178.504558,20.7932951 178.582031,20.9960925 178.582031,21.2421875 L178.582031,25.8085938 L182.396484,25.8085938 C182.642579,25.8085938 182.843098,25.8860669 182.998047,26.0410156 C183.152996,26.1959643 183.230469,26.3964831 183.230469,26.6425781 L183.230469,28.2695312 C183.230469,28.5156262 183.150717,28.7161451 182.991211,28.8710938 C182.831705,29.0260424 182.633465,29.1035156 182.396484,29.1035156 L178.582031,29.1035156 L178.582031,34.1210938 C178.582031,35.0507859 178.800779,35.7685522 179.238281,36.2744141 C179.675783,36.780276 180.259111,37.0332031 180.988281,37.0332031 C181.234376,37.0332031 181.562498,37.0058596 181.972656,36.9511719 C182.382815,36.8964841 182.679036,36.8691406 182.861328,36.8691406 L183.367188,36.8691406 C183.613282,36.8691406 183.81608,36.9466138 183.975586,37.1015625 C184.135092,37.2565112 184.214844,37.45703 184.214844,37.703125 L184.214844,39.1660156 C184.214844,39.3756521 184.135092,39.5579419 183.975586,39.7128906 C183.81608,39.8678393 183.613282,39.9635415 183.367188,40 C182.437495,40.1822926 181.225268,40.2734375 179.730469,40.2734375 C175.811178,40.2825521 173.851562,38.2317914 173.851562,34.1210938 Z M186.443359,22.1582031 L186.443359,21.6933594 C186.443359,21.210284 186.582355,20.8274754 186.860352,20.5449219 C187.138348,20.2623684 187.523435,20.1210938 188.015625,20.1210938 L189.710938,20.1210938 C190.194013,20.1210938 190.576822,20.2600898 190.859375,20.5380859 C191.141928,20.8160821 191.283203,21.2011694 191.283203,21.6933594 L191.283203,22.1582031 C191.283203,22.6412785 191.144207,23.0240871 190.866211,23.3066406 C190.588215,23.5891941 190.203127,23.7304688 189.710938,23.7304688 L188.015625,23.7304688 C187.53255,23.7304688 187.149741,23.5891941 186.867188,23.3066406 C186.584634,23.0240871 186.443359,22.6412785 186.443359,22.1582031 Z M186.498047,39.1660156 L186.498047,26.1914062 C186.498047,25.9453113 186.577799,25.7447924 186.737305,25.5898438 C186.896811,25.4348951 187.095051,25.3574219 187.332031,25.3574219 L190.394531,25.3574219 C190.640626,25.3574219 190.841145,25.4371737 190.996094,25.5966797 C191.151042,25.7561857 191.228516,25.9544259 191.228516,26.1914062 L191.228516,39.1660156 C191.228516,39.4121106 191.148764,39.6126294 190.989258,39.7675781 C190.829752,39.9225268 190.631512,40 190.394531,40 L187.332031,40 C187.085936,40 186.885417,39.9225268 186.730469,39.7675781 C186.57552,39.6126294 186.498047,39.4121106 186.498047,39.1660156 Z M195.931641,38.3046875 C194.509759,36.9921809 193.798828,35.05763 193.798828,32.5009766 C193.798828,29.9443232 194.509759,28.0120508 195.931641,26.7041016 C197.353523,25.3961523 199.397448,24.7421875 202.063477,24.7421875 C204.729506,24.7421875 206.77343,25.3961523 208.195312,26.7041016 C209.617195,28.0120508 210.328125,29.9443232 210.328125,32.5009766 C210.328125,35.05763 209.617195,36.9921809 208.195312,38.3046875 C206.77343,39.6171941 204.729506,40.2734375 202.063477,40.2734375 C199.397448,40.2734375 197.353523,39.6171941 195.931641,38.3046875 Z M199.390625,28.953125 C198.825518,29.6914099 198.542969,30.8717367 198.542969,32.4941406 C198.542969,34.1165446 198.825518,35.3014286 199.390625,36.0488281 C199.955732,36.7962277 200.846674,37.1699219 202.063477,37.1699219 C203.28028,37.1699219 204.1735,36.7962277 204.743164,36.0488281 C205.312828,35.3014286 205.597656,34.1165446 205.597656,32.4941406 C205.597656,30.8717367 205.312828,29.6914099 204.743164,28.953125 C204.1735,28.2148401 203.28028,27.8457031 202.063477,27.8457031 C200.846674,27.8457031 199.955732,28.2148401 199.390625,28.953125 Z M212.84375,39.1660156 L212.84375,25.8632812 C212.84375,25.6171863 212.923502,25.4143888 213.083008,25.2548828 C213.242514,25.0953768 213.440754,25.015625 213.677734,25.015625 L216.740234,25.015625 C216.986329,25.015625 217.186848,25.0953768 217.341797,25.2548828 C217.496746,25.4143888 217.574219,25.6171863 217.574219,25.8632812 L217.574219,26.7246094 C219.141935,25.4029882 220.736971,24.7421875 222.359375,24.7421875 C224.282562,24.7421875 225.800125,25.2822212 226.912109,26.3623047 C228.024094,27.4423882 228.580078,29.0943899 228.580078,31.3183594 L228.580078,39.1660156 C228.580078,39.4121106 228.500326,39.6126294 228.34082,39.7675781 C228.181314,39.9225268 227.978517,40 227.732422,40 L224.683594,40 C224.437499,40 224.23698,39.9202482 224.082031,39.7607422 C223.927083,39.6012362 223.849609,39.402996 223.849609,39.1660156 L223.849609,31.3183594 C223.849609,29.1308484 222.979175,28.0416666 221.238281,28.0507812 C220.098953,28.0507812 218.877611,28.7024674 217.574219,30.0058594 L217.574219,39.1660156 C217.574219,39.4121106 217.494467,39.6126294 217.334961,39.7675781 C217.175455,39.9225268 216.977215,40 216.740234,40 L213.677734,40 C213.431639,40 213.231121,39.9225268 213.076172,39.7675781 C212.921223,39.6126294 212.84375,39.4121106 212.84375,39.1660156 Z M240.40625,21.5429688 C240.351562,21.4335932 240.324219,21.3287765 240.324219,21.2285156 C240.324219,21.0644523 240.38802,20.9095059 240.515625,20.7636719 C240.725261,20.5175769 240.985024,20.3945312 241.294922,20.3945312 L244.289062,20.3945312 C245.000004,20.3945312 245.542316,20.8274696 245.916016,21.6933594 L251.207031,33.4785156 L256.498047,21.6933594 C256.871747,20.8365843 257.414059,20.4036459 258.125,20.3945312 L261.119141,20.3945312 C261.438153,20.3945312 261.697916,20.5175769 261.898438,20.7636719 C262.026042,20.9095059 262.089844,21.0644523 262.089844,21.2285156 C262.089844,21.3287765 262.067058,21.4335932 262.021484,21.5429688 L254.146484,38.6054688 C253.718097,39.5351609 253.066411,40 252.191406,40 L250.222656,40 C249.347652,40 248.695966,39.5351609 248.267578,38.6054688 L240.40625,21.5429688 Z M264.058594,22.1582031 L264.058594,21.6933594 C264.058594,21.210284 264.19759,20.8274754 264.475586,20.5449219 C264.753582,20.2623684 265.138669,20.1210938 265.630859,20.1210938 L267.326172,20.1210938 C267.809247,20.1210938 268.192056,20.2600898 268.474609,20.5380859 C268.757163,20.8160821 268.898438,21.2011694 268.898438,21.6933594 L268.898438,22.1582031 C268.898438,22.6412785 268.759441,23.0240871 268.481445,23.3066406 C268.203449,23.5891941 267.818362,23.7304688 267.326172,23.7304688 L265.630859,23.7304688 C265.147784,23.7304688 264.764975,23.5891941 264.482422,23.3066406 C264.199868,23.0240871 264.058594,22.6412785 264.058594,22.1582031 Z M264.113281,39.1660156 L264.113281,26.1914062 C264.113281,25.9453113 264.193033,25.7447924 264.352539,25.5898438 C264.512045,25.4348951 264.710285,25.3574219 264.947266,25.3574219 L268.009766,25.3574219 C268.255861,25.3574219 268.456379,25.4371737 268.611328,25.5966797 C268.766277,25.7561857 268.84375,25.9544259 268.84375,26.1914062 L268.84375,39.1660156 C268.84375,39.4121106 268.763998,39.6126294 268.604492,39.7675781 C268.444986,39.9225268 268.246746,40 268.009766,40 L264.947266,40 C264.701171,40 264.500652,39.9225268 264.345703,39.7675781 C264.190754,39.6126294 264.113281,39.4121106 264.113281,39.1660156 Z M273.519531,38.2773438 C272.115878,36.9466079 271.414062,35.0302859 271.414062,32.5283203 C271.414062,30.0263547 272.120436,28.1031968 273.533203,26.7587891 C274.945971,25.4143813 276.901029,24.7421875 279.398438,24.7421875 C281.914075,24.7421875 283.873691,25.3961523 285.277344,26.7041016 C286.680997,28.0120508 287.382812,29.8873576 287.382812,32.3300781 L287.382812,33.109375 C287.382812,33.35547 287.303061,33.5582674 287.143555,33.7177734 C286.984049,33.8772794 286.781251,33.9570312 286.535156,33.9570312 L276.240234,33.9570312 C276.331381,35.0781306 276.652667,35.8938777 277.204102,36.4042969 C277.755537,36.9147161 278.600906,37.1699219 279.740234,37.1699219 C281.025397,37.1699219 281.918617,36.8645864 282.419922,36.2539062 C282.811851,35.7708309 283.335934,35.5247396 283.992188,35.515625 L286.029297,35.515625 C286.275392,35.515625 286.478189,35.5953768 286.637695,35.7548828 C286.797201,35.9143888 286.876953,36.1171863 286.876953,36.3632812 C286.876953,38.9791797 284.38414,40.2825521 279.398438,40.2734375 C276.8828,40.2734375 274.923184,39.6080796 273.519531,38.2773438 Z M276.212891,31.0722656 L282.570312,31.0722656 C282.479166,28.9212132 281.424164,27.8457031 279.405273,27.8457031 C277.386383,27.8457031 276.322266,28.9212132 276.212891,31.0722656 Z M288.339844,26.21875 C288.266927,25.9817696 288.225912,25.7858081 288.216797,25.6308594 C288.216797,25.2298157 288.444659,25.0247396 288.900391,25.015625 L291.443359,25.015625 C291.871747,25.015625 292.254556,25.1227203 292.591797,25.3369141 C292.929038,25.5511078 293.161458,25.8450502 293.289062,26.21875 L295.53125,33.5878906 L297.746094,26.21875 C297.992189,25.4166627 298.511715,25.015625 299.304688,25.015625 L301.724609,25.015625 C302.526697,25.015625 303.046223,25.4166627 303.283203,26.21875 L305.498047,33.5878906 L307.740234,26.21875 C307.867839,25.8450502 308.100259,25.5511078 308.4375,25.3369141 C308.774741,25.1227203 309.15755,25.015625 309.585938,25.015625 L312.128906,25.015625 C312.575523,25.015625 312.803385,25.2207011 312.8125,25.6308594 C312.8125,25.7949227 312.771485,25.9908843 312.689453,26.21875 L308.546875,38.796875 C308.41927,39.1705748 308.191408,39.4645172 307.863281,39.6787109 C307.535155,39.8929047 307.184247,40 306.810547,40 L304.882812,40 C304.509113,40 304.153648,39.8883475 303.816406,39.6650391 C303.479165,39.4417307 303.25586,39.1523455 303.146484,38.796875 L300.521484,30.6484375 L297.882812,38.796875 C297.773437,39.1523455 297.550132,39.4417307 297.212891,39.6650391 C296.875649,39.8883475 296.520184,40 296.146484,40 L294.21875,40 C293.84505,40 293.494142,39.8929047 293.166016,39.6787109 C292.837889,39.4645172 292.610027,39.1705748 292.482422,38.796875 L288.339844,26.21875 Z M315.751953,38.2773438 C314.3483,36.9466079 313.646484,35.0302859 313.646484,32.5283203 C313.646484,30.0263547 314.352858,28.1031968 315.765625,26.7587891 C317.178392,25.4143813 319.133451,24.7421875 321.630859,24.7421875 C324.146497,24.7421875 326.106113,25.3961523 327.509766,26.7041016 C328.913418,28.0120508 329.615234,29.8873576 329.615234,32.3300781 L329.615234,33.109375 C329.615234,33.35547 329.535483,33.5582674 329.375977,33.7177734 C329.216471,33.8772794 329.013673,33.9570312 328.767578,33.9570312 L318.472656,33.9570312 C318.563803,35.0781306 318.885088,35.8938777 319.436523,36.4042969 C319.987958,36.9147161 320.833328,37.1699219 321.972656,37.1699219 C323.257819,37.1699219 324.151039,36.8645864 324.652344,36.2539062 C325.044273,35.7708309 325.568356,35.5247396 326.224609,35.515625 L328.261719,35.515625 C328.507814,35.515625 328.710611,35.5953768 328.870117,35.7548828 C329.029623,35.9143888 329.109375,36.1171863 329.109375,36.3632812 C329.109375,38.9791797 326.616561,40.2825521 321.630859,40.2734375 C319.115222,40.2734375 317.155606,39.6080796 315.751953,38.2773438 Z M318.445312,31.0722656 L324.802734,31.0722656 C324.711588,28.9212132 323.656586,27.8457031 321.637695,27.8457031 C319.618805,27.8457031 318.554688,28.9212132 318.445312,31.0722656 Z M332.130859,39.1660156 L332.130859,25.8632812 C332.130859,25.6171863 332.210611,25.4143888 332.370117,25.2548828 C332.529623,25.0953768 332.727863,25.015625 332.964844,25.015625 L336.027344,25.015625 C336.273439,25.015625 336.473958,25.0953768 336.628906,25.2548828 C336.783855,25.4143888 336.861328,25.6171863 336.861328,25.8632812 L336.861328,26.7246094 C337.79102,26.0501268 338.686519,25.5511084 339.547852,25.2275391 C340.409184,24.9039697 341.537102,24.7421875 342.931641,24.7421875 C343.177736,24.7421875 343.380533,24.8219393 343.540039,24.9814453 C343.699545,25.1409513 343.779297,25.3391915 343.779297,25.5761719 L343.779297,27.6542969 C343.779297,27.9003919 343.699545,28.1009107 343.540039,28.2558594 C343.380533,28.4108081 343.177736,28.4882812 342.931641,28.4882812 L342.494141,28.4882812 C342.284504,28.4882812 341.942711,28.4746095 341.46875,28.4472656 C340.994789,28.4199217 340.634767,28.40625 340.388672,28.40625 C339.158197,28.40625 337.982427,29.0807224 336.861328,30.4296875 L336.861328,39.1660156 C336.861328,39.4121106 336.781576,39.6126294 336.62207,39.7675781 C336.462564,39.9225268 336.264324,40 336.027344,40 L332.964844,40 C332.718749,40 332.51823,39.9225268 332.363281,39.7675781 C332.208333,39.6126294 332.130859,39.4121106 332.130859,39.1660156 Z" id="Solution-Viewer"></path>
            </g>
            <g id="Group-5" transform="translate(16.112899, 6.969757)">
                <g id="Logo">
                    <g id="Group-3" transform="translate(0.000000, 5.323718)">
                        <g id="Fill-1-Clipped">
                            <mask id="mask-2" fill="white">
                                <use xlink:href="#path-1"></use>
                            </mask>
                            <g id="path-1"></g>
                            <path d="M0.067141042,0.0172085619 L0.067141042,10.2732138 C0.067141042,17.5151242 -0.77409867,24.2798898 3.49888594,30.5727253 C5.16271817,33.0235025 7.37115426,35.1158996 9.91563658,36.5709305 C12.0779176,37.80551 14.4823476,38.5785888 17.003025,38.7179516 L17.003025,30.4632167 C13.4057036,30.0589473 11.2303299,28.3798149 9.91563658,26.0202949 C7.0406625,20.8629596 8.27322879,12.4541304 7.7216157,7.00359879 C7.66607087,6.45853259 7.34338184,3.79121511 5.17065315,1.81354129 C3.40168248,0.205328754 1.44888487,-0.000130305461 0.521021673,6.19627215e-08 C0.314580046,6.19627215e-08 0.158790016,0.010168721 0.067141042,0.0172085619" id="Fill-1" fill="#345A7E" fill-rule="nonzero" mask="url(#mask-2)"></path>
                        </g>
                    </g>
                    <g id="Group-6" transform="translate(46.636868, 5.807693)">
                        <g id="Fill-4-Clipped">
                            <mask id="mask-4" fill="white">
                                <use xlink:href="#path-3"></use>
                            </mask>
                            <g id="path-3"></g>
                            <path d="M6.94472257e-13,7.53784823 C0.434513479,7.58068428 0.863580595,7.65337578 1.28600581,7.7557929 C1.79729972,7.87794057 2.29677103,8.04396275 2.781763,8.25295079 C3.33689349,8.49309233 3.87090271,8.7878823 4.37847716,9.1396572 C4.66009396,9.33566462 4.93506886,9.54854685 5.1979555,9.77830389 C5.38392886,9.94056169 5.56604992,10.1119059 5.74126339,10.2910385 C6.34182452,10.9035942 6.84249138,11.550159 7.25827468,12.2237236 C10.5566451,17.5561638 8.56141661,24.5981522 9.01173782,30.5745612 C9.05158926,31.0936564 9.31062358,33.9092835 11.5741851,35.9537317 C13.6439358,37.8228117 15.9739163,37.7695912 16.5172242,37.7423319 L16.5172242,22.3005818 C16.5172242,18.2858047 16.4905238,14.5148037 14.8459879,10.7713216 C14.1924244,9.28504019 13.3490352,7.8868972 12.3461074,6.62271425 C11.7774274,5.90215982 11.1570734,5.22729719 10.4916873,4.60409745 C10.2047569,4.33150435 9.90839511,4.07059381 9.60565704,3.82006777 L9.60286744,3.81760145 C9.18708413,3.47491298 8.75814986,3.15039739 8.31447055,2.84794886 C7.78032848,2.48176546 7.22652637,2.14686537 6.65651802,1.84441683 C4.65610882,0.784029676 2.44568256,0.127210113 0.125000668,-2.32071307e-13 L6.94472257e-13,7.53784823 Z" id="Fill-4" fill="#345A7E" fill-rule="nonzero" mask="url(#mask-4)"></path>
                        </g>
                    </g>
                    <g id="Group-14" transform="translate(8.258612, 0.000000)">
                        <path d="M49.065872,9.94454113 L43.729095,15.0032062 C43.4639302,14.778701 43.1867124,14.5704403 42.9027986,14.378805 C42.391218,14.0348767 41.852853,13.7467892 41.2930606,13.5120041 L46.8708965,8.2275647 C47.3181947,8.5232669 47.7507616,8.84054394 48.1699363,9.17546158 L48.1726147,9.1779998 C48.477956,9.42306459 48.7766013,9.67802841 49.065872,9.94454113" id="Fill-7" fill-opacity="0.432914402" fill="#A1A1A1" fill-rule="nonzero"></path>
                        <path d="M8.74441283,35.5540786 C8.19314992,35.5487685 7.46672787,35.4736505 6.66998171,35.1924762 C6.3722763,35.087311 6.10582605,34.9680288 5.87076118,34.8461564 C5.25555542,34.926714 3.65112379,35.2196741 2.18773108,36.5190855 C0.503989481,38.0145809 0.101449045,39.8711605 5.60690383e-13,40.4459426 C0.588508647,40.8379807 1.17701729,41.2297598 1.76539571,41.6217979 L8.74441283,35.5540786 Z" id="Fill-9" fill-opacity="0.142153533" fill="#000000" fill-rule="nonzero" opacity="0.260379464"></path>
                        <g id="Group-13" transform="translate(1.457402, 0.000000)">
                            <g id="Fill-11-Clipped">
                                <mask id="mask-6" fill="white">
                                    <use xlink:href="#path-5"></use>
                                </mask>
                                <g id="path-5"></g>
                                <path d="M46.9979291,9.22922911 L46.9951424,9.22663554 L37.6172135,2.66217604e-13 L37.5269761,5.41278661 L37.5248528,5.53753747 C37.1786329,5.52119796 36.8300243,5.51497338 36.479956,5.52314314 C29.1375456,5.69418927 22.4918215,11.4792833 20.368587,19.115929 C19.2565429,23.1191087 19.7780624,27.4193822 17.4119829,31.0256156 C15.4178676,34.060874 12.0071567,36.0545535 8.33382825,35.8709285 C8.10982701,35.8451225 7.88688738,35.8273565 7.66554018,35.8165932 C7.6360803,35.8134809 7.6051607,35.8115357 7.57609893,35.8082937 L7.57609893,35.8124434 C4.98774333,35.7109051 2.61635575,36.6375887 1.23970356,38.4217074 C0.358693934,39.5632686 0.0871853181,40.7936595 -3.61710661e-13,41.611024 C0.8177107,42.1446516 1.95961277,42.7745008 3.41137439,43.2592396 C5.05794277,43.8092067 6.51965704,43.977789 7.57609893,44.0194158 C7.82292494,44.0325134 8.07107798,44.0401644 8.32055803,44.0414612 C15.6005984,44.0803648 22.6776046,38.6766557 25.039703,31.1891404 C26.027007,28.0612915 26.2220792,24.702485 27.0461596,21.520171 C27.9180128,18.1577335 29.7094919,14.9273087 33.0841078,13.666962 C34.4943336,13.139948 35.9667968,12.9397242 37.4002455,13.0616221 L37.3027094,18.8865274 L41.7760992,14.54346 L47.1226691,9.35242383 L46.9979291,9.22922911 Z" id="Fill-11" fill="#67C0ED" fill-rule="nonzero" mask="url(#mask-6)"></path>
                            </g>
                        </g>
                    </g>
                </g>
            </g>
        </g>
    </g>
</svg>