<?xml version="1.0" encoding="UTF-8"?>
<svg width="82px" height="79px" viewBox="0 0 82 79" version="1.1" xmlns="http://www.w3.org/2000/svg" xmlns:xlink="http://www.w3.org/1999/xlink">
    <!-- Generator: Sketch 52.2 (67145) - http://www.bohemiancoding.com/sketch -->
    <title>if_know-how_2978986</title>
    <desc>Created with Sketch.</desc>
    <g id="Page-1" stroke="none" stroke-width="1" fill="none" fill-rule="evenodd">
        <g id="Solution-Viewer---Tile-Info" transform="translate(-1125.000000, -377.000000)">
            <g id="Grid" transform="translate(110.000000, 135.000000)">
                <g id="Group-8" transform="translate(600.000000, 32.000000)">
                    <g id="if_know-how_2978986" transform="translate(416.000000, 210.000000)">
                        <path d="M36.1102312,51.0608485 C37.630662,54.708202 40.0380108,57.1831919 42.6987646,59.0068687 L6.33512829,59.0068687 C2.78745645,59.0068687 5.47117907e-13,61.8726465 5.47117907e-13,65.52 L5.47117907e-13,7.55313131 C5.47117907e-13,3.90577778 2.78745645,1.04 6.33512829,1.04 L48.7804878,1.04 C50.5543237,1.04 51.9480519,2.47288889 51.9480519,4.29656566 L51.9480519,25.2688485 C47.260057,25.2688485 42.6987646,27.2227879 39.2777954,30.8701414 C34.3363953,36.2109091 33.1960722,44.2871919 36.1102312,51.0608485 Z M9.35064935,14.56 L9.35064935,20.8 L42.5974026,20.8 L42.5974026,14.56 L9.35064935,14.56 Z" id="Combined-Shape" fill="#DDDEE2"></path>
                        <path d="M63.2167832,53.92 C62.5774226,54.56 61.9380619,55.072 61.2987013,55.584 L66.02997,60.32 L69.6103896,56.736 L64.8791209,52 C64.3676324,52.64 63.8561439,53.28 63.2167832,53.92 Z" id="Path" stroke="#CACBCF" stroke-width="1.03896104" stroke-linecap="round" stroke-linejoin="round"></path>
                        <path d="M63.1163431,31.612973 C57.2281772,25.5156757 47.7068877,25.5156757 41.8187218,31.612973 C35.9305559,37.7102703 35.9305559,47.5697297 41.8187218,53.667027 C47.7068877,59.7643243 57.2281772,59.7643243 63.1163431,53.667027 C69.004509,47.5697297 69.004509,37.7102703 63.1163431,31.612973 Z M60.4854605,50.9427027 C56.1006561,55.4832432 48.959689,55.4832432 44.5748846,50.9427027 C40.1900802,46.4021622 40.1900802,39.0075676 44.5748846,34.467027 C48.959689,29.9264865 56.1006561,29.9264865 60.4854605,34.467027 C64.8702649,38.8778378 64.8702649,46.2724324 60.4854605,50.9427027 Z" id="Shape" stroke="#CACBCF" stroke-width="1.03896104" stroke-linecap="round" stroke-linejoin="round"></path>
                        <path d="M6.23376623,1.04 C2.74285714,1.04 0,3.90577778 0,7.55313131 L0,65.52" id="Path" stroke="#CACBCF" stroke-width="1.03896104" stroke-linecap="round" stroke-linejoin="round"></path>
                        <path d="M14.5454545,1.04 L10.3896104,1.04" id="Path" stroke="#CACBCF" stroke-width="1.03896104" stroke-linecap="round" stroke-linejoin="round"></path>
                        <path d="M51.9480519,24.96 L51.9480519,4.25505376 C51.9480519,2.45462366 50.5512266,1.04 48.7734488,1.04 L17.6623377,1.04" id="Path" stroke="#CACBCF" stroke-width="1.03896104" stroke-linecap="round" stroke-linejoin="round"></path>
                        <path d="M42.0713683,58.24 L6.61660646,58.24 C3.32437858,58.24 0.412023141,60.8088 0.0321506927,64.324 C-0.347721756,68.38 2.69125783,71.76 6.36335816,71.76 L48.7824482,71.76 C50.5551863,71.76 51.9480519,70.2728 51.9480519,68.38 L51.9480519,61.0792" id="Path" stroke="#CACBCF" stroke-width="1.03896104" stroke-linecap="round" stroke-linejoin="round"></path>
                        <path d="M60.034005,51.6219499 C55.5771805,56.2860167 48.3189234,56.2860167 43.8620989,51.6219499 C39.4052744,46.957883 39.4052744,39.362117 43.8620989,34.6980501 C48.3189234,30.0339833 55.5771805,30.0339833 60.034005,34.6980501 C64.4908295,39.2288579 64.4908295,46.824624 60.034005,51.6219499 Z" id="Path" stroke="#CACBCF" stroke-width="1.03896104" fill="#E4E5E9" stroke-linecap="round" stroke-linejoin="round"></path>
                        <path d="M51.9480519,35.36 C53.8874459,35.36 55.7056277,36.192 57.038961,37.856 C58.4935065,39.52 59.2207792,41.6 59.2207792,43.68" id="Path" stroke="#CACBCF" stroke-width="1.03896104" stroke-linecap="round" stroke-linejoin="round"></path>
                        <path d="M69.3877551,57.59 L66.8552876,60.32 C66.3729128,60.84 66.3729128,61.62 66.8552876,62.14 L75.4174397,71.37 C75.8998145,71.89 76.6233766,71.89 77.1057514,71.37 L79.6382189,68.64 C80.1205937,68.12 80.1205937,67.34 79.6382189,66.82 L71.0760668,57.59 C70.593692,57.07 69.8701299,57.07 69.3877551,57.59 Z" id="Path" stroke="#CACBCF" stroke-width="1.03896104" fill="#D6D7DB" stroke-linecap="round" stroke-linejoin="round"></path>
                        <polyline id="Path" stroke="#CACBCF" stroke-width="1.03896104" fill="#DDDEE2" stroke-linecap="round" stroke-linejoin="round" points="12.4675325 67.6 12.4675325 78 9.35064935 75.4 6.23376623 78 6.23376623 67.6"></polyline>
                        <path d="M6.23376623,64.48 L45.7142857,64.48" id="Path" stroke="#CACBCF" stroke-width="1.03896104" stroke-linecap="round" stroke-linejoin="round"></path>
                        <path d="M9.35064935,36.4 L25.974026,36.4" id="Path" stroke="#CACBCF" stroke-width="1.03896104" fill="#FFFFFF" stroke-linecap="round" stroke-linejoin="round"></path>
                        <path d="M9.35064935,42.64 L21.8181818,42.64" id="Path" stroke="#CACBCF" stroke-width="1.03896104" fill="#FFFFFF" stroke-linecap="round" stroke-linejoin="round"></path>
                        <path d="M73.7662338,69.68 L77.9220779,64.48" id="Path" stroke="#CACBCF" stroke-width="1.03896104" stroke-linecap="round" stroke-linejoin="round"></path>
                        <rect id="Rectangle" stroke="#CACBCF" stroke-width="1.03896104" stroke-linecap="round" stroke-linejoin="round" x="9.35064935" y="14.56" width="33.2467532" height="6.24"></rect>
                    </g>
                </g>
            </g>
        </g>
    </g>
</svg>