<svg xmlns="http://www.w3.org/2000/svg" width="32" height="32" viewBox="0 0 32 32">
    <g fill="none" fill-rule="evenodd">
        <g fill-rule="nonzero">
            <path fill="#6BD1F6" d="M21.663 15.35l-5.677-2.304a1.038 1.038 0 0 0-.624 0L9.747 15.35c-.187.064-.312.256-.312.512v6.912c0 .256.125.448.312.512l5.677 2.304c.125.064.188.064.312.064v-7.232c0-.256.125-.448.312-.512l5.802-2.368c-.062-.128-.124-.192-.187-.192z"/>
            <path fill="#E3F0F5" d="M21.663 15.35l-5.677-2.304a1.038 1.038 0 0 0-.624 0L9.747 15.35c-.062.064-.125.064-.187.128l6.301 2.56s.125-.128.187-.128l5.802-2.368c-.062-.128-.124-.192-.187-.192z"/>
            <path fill="#3BAFDA" d="M21.975 15.862a.496.496 0 0 0-.125-.32l-5.802 2.368c-.187.064-.312.256-.312.512v7.232c.125 0 .187 0 .312-.064l5.615-2.304c.187-.064.312-.256.312-.512v-6.912z"/>
            <path fill="#6BD1F6" d="M21.517 5.126L15.84 2.822a1.038 1.038 0 0 0-.624 0L9.6 5.126c-.187.064-.312.256-.312.512v6.912c0 .256.125.448.312.512l5.677 2.304c.125.064.187.064.312.064V8.198c0-.256.125-.448.312-.512l5.802-2.368c0-.128-.062-.192-.187-.192z"/>
            <path fill="#E3F0F5" d="M21.517 5.126L15.84 2.822a1.038 1.038 0 0 0-.624 0L9.6 5.126c-.063.064-.125.064-.187.128l6.3 2.56s.126-.128.188-.128l5.802-2.368c0-.128-.062-.192-.187-.192z"/>
            <path fill="#3BAFDA" d="M21.891 5.638a.496.496 0 0 0-.124-.32l-5.803 2.368c-.25.064-.374.256-.374.512v7.232c.125 0 .187 0 .312-.064l5.615-2.304c.187-.064.312-.256.312-.512l.062-6.912z"/>
        </g>
        <g transform="translate(18.182 13.818)">
            <path fill="#6BD1F6" fill-rule="nonzero" d="M13.43 5.147L7.467 2.843a1.142 1.142 0 0 0-.655 0L.917 5.147c-.196.064-.327.256-.327.512v6.912c0 .256.13.448.327.512l5.961 2.304c.131.064.197.064.328.064V8.219c0-.256.13-.448.327-.512l6.093-2.368c-.066-.128-.131-.192-.197-.192z"/>
            <path fill="#E3F0F5" fill-rule="nonzero" d="M13.43 5.147L7.467 2.843a1.142 1.142 0 0 0-.655 0L.917 5.147c-.065.064-.13.064-.196.128l6.616 2.56s.131-.128.196-.128l6.093-2.368c-.066-.128-.131-.192-.197-.192z"/>
            <ellipse cx="8.444" cy=".821" stroke="#3BAFDA" stroke-width=".531" rx="1" ry="1"/>
            <path stroke="#3BAFDA" stroke-width=".531" d="M8.174 1.333L6.91 2.564v3.077"/>
            <path fill="#3BAFDA" fill-rule="nonzero" d="M13.757 5.659a.483.483 0 0 0-.131-.32L7.533 7.707c-.196.064-.327.256-.327.512v7.232c.13 0 .196 0 .327-.064l5.896-2.304c.197-.064.328-.256.328-.512V5.659z"/>
        </g>
        <g transform="translate(0 13.09)">
            <path fill="#6BD1F6" fill-rule="nonzero" d="M12.84 5.834L6.878 3.522a1.138 1.138 0 0 0-.655 0L.328 5.834C.13 5.9 0 6.091 0 6.348v6.873c0 .257.131.45.328.514l5.96 2.312a.6.6 0 0 0 .328.065V8.853c0-.257.131-.45.328-.513l6.092-2.377c0-.064-.13-.129-.196-.129z"/>
            <path fill="#E3F0F5" fill-rule="nonzero" d="M12.84 5.834L6.878 3.522a1.138 1.138 0 0 0-.655 0L.328 5.834C.262 5.9.197 5.9.13 5.963l6.616 2.57s.131-.13.197-.13l6.092-2.376c0-.128-.13-.193-.196-.193z"/>
            <path fill="#3BAFDA" fill-rule="nonzero" d="M13.167 6.348a.486.486 0 0 0-.13-.32L6.943 8.403c-.197.064-.328.257-.328.514v7.258c.131 0 .197 0 .328-.064l5.896-2.313c.196-.064.327-.257.327-.514V6.348z"/>
            <path stroke="#3BAFDA" stroke-width=".531" d="M5.87 1.338l.886.865v3.706"/>
            <ellipse cx="4.989" cy=".823" stroke="#3BAFDA" stroke-width=".531" rx="1" ry="1"/>
        </g>
    </g>
</svg>
