<svg xmlns="http://www.w3.org/2000/svg" width="32" height="32" viewBox="0 0 32 32">
    <g fill="none" fill-rule="nonzero">
        <path fill="#E3F0F5" d="M21.86 2.572l3.61 1.468-12.72 6.939-1.083 8.936-6.75-2.553.333-9.702z"/>
        <path fill="#3BAFDA" d="M31.5 7.415c0-.304-.107-.587-.28-.819l-14.338 5.822c-.507.206-.84.707-.84 1.265v17.738c.249-.001.498-.049.734-.145h.027l13.856-5.631c.507-.206.84-.707.84-1.265V7.415z"/>
        <path fill="#6BD1F6" d="M30.659 6.15l-.002-.001L25.47 4.04l-14.653 5.98a1.362 1.362 0 0 0-.838 1.264v6.982L6.333 16.68V9.83c0-.558.332-1.059.839-1.265l14.687-5.994-5.169-2.1a1.96 1.96 0 0 0-1.479 0L1.347 6.101c-.508.206-.841.707-.841 1.265L.5 24.337c0 .558.333 1.06.84 1.266l13.957 5.674h.001c.237.096.487.144.738.144l.006-17.738c0-.558.333-1.059.84-1.265L31.22 6.595a1.325 1.325 0 0 0-.56-.445z"/>
        <path fill="#E3F0F5" d="M19.361 15.718a85.614 85.614 0 0 1 2.284-1.065c.324-.144.671-.15.998.022 2.203 1.152 4.405 2.305 6.606 3.46.361.19.464.51.273.876a654.57 654.57 0 0 1-1.03 1.972c-.337.661-.676 1.32-1.015 1.98-.188.367-.51.469-.873.283-2.214-1.13-4.427-2.261-6.64-3.393a1.114 1.114 0 0 1-.595-.803 85.966 85.966 0 0 1-.45-2.48.766.766 0 0 1 .086-.496.767.767 0 0 1 .356-.356zm.277.93a.571.571 0 0 0 .511.62c.234.02.45-.115.549-.318a.564.564 0 0 0-.058-.631.571.571 0 0 0-.8-.06.545.545 0 0 0-.135.177.542.542 0 0 0-.067.212z"/>
    </g>
</svg>
